<svg width="110" height="110" viewBox="0 0 110 110" fill="none" xmlns="http://www.w3.org/2000/svg">
<rect width="110" height="110" fill="black"/>
<g clip-path="url(#clip0)">
<path d="M38.5314 73.0352V72.7564H39.4797V73.0352L39.1842 73.0969V74.2014H40.4644V73.0969L40.1688 73.0352V72.7564H41.1171V73.0352L40.8216 73.0969V75.6156L41.1171 75.6772V75.9538H40.1688V75.6772L40.4644 75.6156V74.5418H39.1842V75.6156L39.4797 75.6772V75.9538H38.5314V75.6772L38.8269 75.6156V73.0969L38.5314 73.0352Z" fill="#999591"/>
<path d="M42.6983 75.9538C42.6874 75.8896 42.679 75.8315 42.6729 75.7805C42.6669 75.7292 42.6626 75.6778 42.6602 75.6268C42.5913 75.7337 42.5049 75.8229 42.4009 75.8944C42.2982 75.9647 42.1882 76 42.0709 76C41.8666 76 41.7113 75.94 41.6049 75.82C41.4985 75.6984 41.4453 75.528 41.4453 75.3081C41.4453 75.0829 41.5203 74.9093 41.6702 74.7877C41.8213 74.6648 42.028 74.6031 42.2903 74.6031H42.6584V74.3265C42.6584 74.1876 42.6221 74.0775 42.5496 73.9973C42.4771 73.9151 42.3761 73.8741 42.2468 73.8741C42.1573 73.8741 42.0782 73.8882 42.0093 73.9158C41.9416 73.9437 41.8865 73.9819 41.8442 74.03L41.8062 74.2803H41.5305V73.8192C41.62 73.7329 41.7282 73.6642 41.8551 73.6129C41.9821 73.5602 42.1199 73.5339 42.2685 73.5339C42.491 73.5339 42.6711 73.6026 42.8089 73.7403C42.9467 73.8779 43.0156 74.0746 43.0156 74.331V75.475C43.0156 75.5058 43.0156 75.536 43.0156 75.5652C43.0168 75.5944 43.0187 75.6236 43.0211 75.6531L43.1661 75.6772V75.9538H42.6983ZM42.1235 75.6377C42.242 75.6377 42.3501 75.6034 42.4481 75.5344C42.546 75.4657 42.6161 75.3829 42.6584 75.2863V74.8955H42.2776C42.1313 74.8955 42.0153 74.9362 41.9295 75.0184C41.8448 75.1002 41.8025 75.2 41.8025 75.3171C41.8025 75.4211 41.8291 75.5007 41.8823 75.5565C41.9355 75.6104 42.0159 75.6377 42.1235 75.6377Z" fill="#999591"/>
<path d="M43.4635 75.6772L43.7591 75.6156V73.918L43.4635 73.8567V73.5776H44.1163V75.6156L44.4119 75.6772V75.9538H43.4635V75.6772ZM44.1163 72.9695H43.7591V72.5279H44.1163V72.9695Z" fill="#999591"/>
<path d="M44.6857 73.8567V73.5776H45.3004L45.3348 73.9225C45.3904 73.8009 45.4588 73.7059 45.5397 73.6369C45.622 73.5683 45.7156 73.5339 45.8208 73.5339C45.8486 73.5339 45.877 73.5368 45.906 73.5426C45.9362 73.5471 45.9592 73.5522 45.9749 73.558L45.9278 73.9597L45.7247 73.9466C45.6304 73.9466 45.5512 73.9739 45.4872 74.0278C45.4231 74.0807 45.3735 74.1552 45.3385 74.2518V75.6156L45.634 75.6772V75.9538H44.6857V75.6772L44.9812 75.6156V73.918L44.6857 73.8567Z" fill="#999591"/>
<path d="M47.0684 75.6618C47.1868 75.6618 47.2908 75.6178 47.3803 75.5299C47.4709 75.4407 47.5162 75.3316 47.5162 75.2029H47.8372L47.8408 75.2161C47.8469 75.4211 47.7713 75.6034 47.6142 75.7629C47.4582 75.9211 47.2763 76 47.0684 76C46.7831 76 46.5649 75.8874 46.4138 75.6618C46.2638 75.4362 46.1889 75.1532 46.1889 74.812V74.7196C46.1889 74.3814 46.2645 74.0997 46.4156 73.8741C46.5667 73.6472 46.7843 73.5339 47.0684 73.5339C47.2255 73.5339 47.3663 73.5654 47.4909 73.6283C47.6166 73.6912 47.7205 73.7775 47.8027 73.8872L47.8191 74.4145H47.5344L47.4564 74.0409C47.4141 73.9912 47.3597 73.9511 47.2932 73.9203C47.2267 73.8895 47.1518 73.8741 47.0684 73.8741C46.881 73.8741 46.7468 73.9562 46.6658 74.1202C46.586 74.2826 46.5461 74.4825 46.5461 74.7196V74.812C46.5461 75.055 46.586 75.2578 46.6658 75.4201C46.7456 75.5812 46.8798 75.6618 47.0684 75.6618Z" fill="#999591"/>
<path d="M49.5925 75.6024C49.5308 75.7298 49.451 75.828 49.3531 75.8967C49.2564 75.9657 49.1446 76 49.0177 76C48.8049 76 48.6387 75.9172 48.519 75.752C48.3993 75.5864 48.3395 75.3287 48.3395 74.9789V73.918L48.1146 73.8567V73.5776H48.6967V74.9831C48.6967 75.2366 48.7275 75.4108 48.7892 75.5058C48.8508 75.6011 48.9469 75.6486 49.0775 75.6486C49.2044 75.6486 49.309 75.6178 49.3912 75.5565C49.4746 75.4933 49.5375 75.4047 49.5798 75.2905V73.918L49.3169 73.8567V73.5776H49.937V75.6156L50.1618 75.6772V75.9538H49.616L49.5925 75.6024Z" fill="#999591"/>
<path d="M51.0684 73.0044V73.5776H51.4403V73.8985H51.0684V75.3412C51.0684 75.4526 51.0872 75.5309 51.1247 75.5761C51.1635 75.6217 51.2142 75.6441 51.2771 75.6441C51.3085 75.6441 51.3436 75.6412 51.3822 75.6355C51.422 75.6281 51.4553 75.6207 51.482 75.6133L51.5308 75.9098C51.497 75.9365 51.4476 75.9576 51.3822 75.9737C51.3169 75.9913 51.2517 76 51.1865 76C51.0412 76 50.9258 75.9474 50.84 75.8418C50.7542 75.7349 50.7114 75.5681 50.7114 75.3412V73.8985H50.4012V73.5776H50.7114V73.0044H51.0684Z" fill="#999591"/>
<path d="M53.3061 74.3243H53.0378L52.9797 74.039C52.9362 73.9889 52.8812 73.9495 52.8147 73.9203C52.7495 73.8895 52.675 73.8741 52.5918 73.8741C52.4648 73.8741 52.3705 73.9078 52.3087 73.9751C52.2472 74.0425 52.2163 74.1237 52.2163 74.219C52.2163 74.3127 52.2435 74.3865 52.2979 74.4408C52.3523 74.495 52.463 74.5431 52.6298 74.5858C52.8775 74.65 53.0619 74.7379 53.1828 74.8493C53.3038 74.959 53.3642 75.1069 53.3642 75.2927C53.3642 75.5036 53.2935 75.6743 53.1519 75.8046C53.0117 75.9349 52.8279 76 52.6008 76C52.4521 76 52.3185 75.9795 52.1999 75.9384C52.0816 75.896 51.9757 75.8354 51.8828 75.7561L51.8809 75.2138H52.1492L52.2163 75.5321C52.2575 75.5777 52.313 75.6104 52.3832 75.631C52.4545 75.6515 52.5271 75.6618 52.6008 75.6618C52.7278 75.6618 52.8268 75.631 52.8981 75.5697C52.9708 75.5065 53.0069 75.4246 53.0069 75.3236C53.0069 75.2286 52.9768 75.1499 52.9164 75.0887C52.8569 75.027 52.7439 74.9738 52.5773 74.9282C52.3391 74.8653 52.1595 74.7796 52.0386 74.6715C51.9177 74.563 51.8572 74.4167 51.8572 74.2322C51.8572 74.039 51.925 73.8741 52.0605 73.738C52.197 73.6019 52.3742 73.5339 52.5918 73.5339C52.7405 73.5339 52.8738 73.5573 52.9924 73.6042C53.111 73.651 53.2095 73.7162 53.2879 73.7996L53.3061 74.3243Z" fill="#999591"/>
<path d="M54.5953 75.0932C54.5953 74.9144 54.6379 74.7585 54.7224 74.6253C54.8082 74.4905 54.9357 74.3557 55.105 74.2213C55.0107 74.0762 54.9405 73.9472 54.8945 73.8346C54.8486 73.7204 54.8256 73.6032 54.8256 73.4832C54.8256 73.2358 54.8842 73.0455 55.0015 72.9123C55.12 72.7776 55.2827 72.7102 55.4895 72.7102C55.6804 72.7102 55.8357 72.7769 55.9553 72.9101C56.0752 73.0433 56.1349 73.2037 56.1349 73.3911C56.1349 73.5346 56.1029 73.6591 56.0387 73.7643C55.9759 73.8683 55.8821 73.9752 55.7578 74.0849L55.56 74.2608L56.1766 75.1589C56.2262 75.0636 56.2648 74.9584 56.2928 74.8425C56.3205 74.727 56.3345 74.6048 56.3345 74.4758H56.6535C56.6535 74.6676 56.63 74.8454 56.5827 75.0094C56.5357 75.1734 56.4673 75.3207 56.3778 75.451L56.7134 75.9429L56.7097 75.9538H56.2944L56.1404 75.7298C56.0438 75.8177 55.9365 75.8851 55.8193 75.932C55.702 75.9772 55.5806 76 55.4549 76C55.1927 76 54.9835 75.9159 54.8275 75.7475C54.6727 75.579 54.5953 75.3608 54.5953 75.0932ZM55.4549 75.6618C55.542 75.6618 55.6278 75.6441 55.7123 75.6092C55.7971 75.5726 55.8769 75.5206 55.9519 75.4532L55.2972 74.4979L55.2246 74.5614C55.1148 74.6612 55.0416 74.7562 55.0052 74.847C54.9701 74.9378 54.9526 75.0197 54.9526 75.0932C54.9526 75.2584 54.9957 75.3945 55.0815 75.5013C55.1673 75.6085 55.2917 75.6618 55.4549 75.6618ZM55.1829 73.4787C55.1829 73.5564 55.1993 73.6376 55.232 73.7226C55.2645 73.806 55.3136 73.8975 55.3788 73.9973L55.6289 73.7884C55.6978 73.7329 55.7446 73.6729 55.7686 73.6084C55.7939 73.5426 55.8066 73.4701 55.8066 73.3911C55.8066 73.3016 55.777 73.2227 55.7179 73.154C55.6598 73.085 55.5837 73.0507 55.4895 73.0507C55.3915 73.0507 55.316 73.0924 55.2626 73.1758C55.2096 73.258 55.1829 73.3587 55.1829 73.4787Z" fill="#999591"/>
<path d="M59.7653 73.7008H59.4949L59.4278 73.2438C59.3734 73.1883 59.301 73.1421 59.2102 73.1055C59.1196 73.0689 59.0145 73.0507 58.8946 73.0507C58.705 73.0507 58.5593 73.0998 58.4579 73.1976C58.3562 73.2945 58.3055 73.421 58.3055 73.5776C58.3055 73.7168 58.3567 73.8333 58.4595 73.927C58.5635 74.0191 58.7309 74.1003 58.962 74.1706C59.2398 74.254 59.4508 74.3772 59.5947 74.5396C59.7397 74.702 59.8123 74.9035 59.8123 75.1435C59.8123 75.4012 59.7251 75.6085 59.5511 75.7651C59.3784 75.9217 59.1516 76 58.8711 76C58.6681 76 58.4874 75.9599 58.329 75.8793C58.1719 75.7988 58.0438 75.6932 57.9445 75.5629V74.9677H58.2131L58.2817 75.4269C58.3507 75.4956 58.433 75.552 58.5284 75.596C58.624 75.64 58.7383 75.6618 58.8711 75.6618C59.0512 75.6618 59.1933 75.6156 59.2974 75.5235C59.4025 75.4311 59.455 75.3059 59.455 75.148C59.455 75.0014 59.4098 74.8791 59.319 74.7812C59.2284 74.6814 59.0681 74.598 58.8387 74.5309C58.5593 74.4504 58.3412 74.3317 58.184 74.1751C58.0269 74.0185 57.9482 73.8214 57.9482 73.5843C57.9482 73.334 58.0359 73.1261 58.2112 72.9605C58.3863 72.7936 58.6142 72.7102 58.8946 72.7102C59.0798 72.7102 59.2477 72.749 59.3988 72.8267C59.5511 72.9027 59.6734 72.9958 59.7653 73.1055V73.7008Z" fill="#999591"/>
<path d="M60.1006 75.6772L60.3961 75.6156V72.8684L60.1006 72.8068V72.5279H60.7534V73.894C60.821 73.7797 60.9039 73.6912 61.0019 73.6283C61.0996 73.5654 61.2084 73.5339 61.3283 73.5339C61.5385 73.5339 61.7017 73.61 61.8179 73.7621C61.9338 73.9145 61.9919 74.1488 61.9919 74.4648V75.6156L62.2874 75.6772V75.9538H61.3391V75.6772L61.6346 75.6156V74.4607C61.6346 74.2643 61.5995 74.1196 61.5295 74.0259C61.4606 73.9322 61.3574 73.8853 61.2195 73.8853C61.1215 73.8853 61.032 73.9135 60.951 73.9707C60.8712 74.0265 60.8054 74.1026 60.7534 74.1991V75.6156L61.0489 75.6772V75.9538H60.1006V75.6772Z" fill="#999591"/>
<path d="M63.8269 75.9538C63.8161 75.8896 63.8076 75.8315 63.8016 75.7805C63.7955 75.7292 63.7913 75.6778 63.7889 75.6268C63.72 75.7337 63.6336 75.8229 63.5296 75.8944C63.4269 75.9647 63.3167 76 63.1995 76C62.9954 76 62.8398 75.94 62.7334 75.82C62.6273 75.6984 62.5739 75.528 62.5739 75.3081C62.5739 75.0829 62.6489 74.9093 62.7989 74.7877C62.9499 74.6648 63.1567 74.6031 63.4189 74.6031H63.7871V74.3265C63.7871 74.1876 63.7509 74.0775 63.6783 73.9973C63.6056 73.9151 63.5048 73.8741 63.3754 73.8741C63.2861 73.8741 63.2069 73.8882 63.138 73.9158C63.0701 73.9437 63.0152 73.9819 62.9729 74.03L62.9349 74.2803H62.6592V73.8192C62.7487 73.7329 62.8567 73.6642 62.9837 73.6129C63.1108 73.5602 63.2486 73.5339 63.3973 73.5339C63.6196 73.5339 63.7997 73.6026 63.9376 73.7403C64.0754 73.8779 64.1443 74.0746 64.1443 74.331V75.475C64.1443 75.5058 64.1443 75.536 64.1443 75.5652C64.1454 75.5944 64.1472 75.6236 64.1496 75.6531L64.2949 75.6772V75.9538H63.8269ZM63.252 75.6377C63.3706 75.6377 63.4789 75.6034 63.5766 75.5344C63.6746 75.4657 63.7448 75.3829 63.7871 75.2863V74.8955H63.4063C63.26 74.8955 63.144 74.9362 63.0582 75.0184C62.9735 75.1002 62.9312 75.2 62.9312 75.3171C62.9312 75.4211 62.9579 75.5007 63.0109 75.5565C63.064 75.6104 63.1446 75.6377 63.252 75.6377Z" fill="#999591"/>
<path d="M65.236 73.8567L65.0002 73.9004L65.4045 75.2533L65.4372 75.4246H65.448L65.4824 75.2533L65.8742 73.9004L65.6366 73.8567V73.5776H66.3945V73.8567L66.2331 73.8895L65.5751 75.9538H65.3049L64.6392 73.8895L64.4778 73.8567V73.5776H65.236V73.8567Z" fill="#999591"/>
<path d="M67.508 76C67.2347 76 67.0171 75.8903 66.8553 75.6704C66.6944 75.4497 66.6139 75.1634 66.6139 74.812V74.7151C66.6139 74.3772 66.6968 74.0961 66.8624 73.8718C67.0293 73.6465 67.2263 73.5339 67.4536 73.5339C67.7172 73.5339 67.9165 73.6305 68.052 73.8237C68.1885 74.0169 68.2569 74.2745 68.2569 74.5967V74.8669H66.9839L66.9786 74.8778C66.982 75.1063 67.0298 75.2943 67.1217 75.4423C67.2136 75.5886 67.3425 75.6618 67.508 75.6618C67.6287 75.6618 67.7346 75.6412 67.8252 75.6002C67.9171 75.5578 67.9963 75.5 68.0628 75.4269L68.2025 75.708C68.1323 75.7898 68.0393 75.8594 67.9231 75.9166C67.8083 75.9721 67.6699 76 67.508 76ZM67.4536 73.8741C67.3337 73.8741 67.2318 73.9357 67.147 74.0586C67.0625 74.1802 67.0105 74.3333 66.9912 74.5178L66.9947 74.5287H67.8996V74.4716C67.8996 74.3018 67.8621 74.1597 67.7871 74.0454C67.7122 73.9312 67.601 73.8741 67.4536 73.8741Z" fill="#999591"/>
<path d="M70.1118 74.3243H69.8435L69.7854 74.039C69.7421 73.9889 69.6869 73.9495 69.6203 73.9203C69.5551 73.8895 69.4809 73.8741 69.3975 73.8741C69.2704 73.8741 69.1762 73.9078 69.1146 73.9751C69.0528 74.0425 69.022 74.1237 69.022 74.219C69.022 74.3127 69.0492 74.3865 69.1036 74.4408C69.158 74.495 69.2686 74.5431 69.4355 74.5858C69.6834 74.65 69.8678 74.7379 69.9884 74.8493C70.1094 74.959 70.1699 75.1069 70.1699 75.2927C70.1699 75.5036 70.0991 75.6743 69.9578 75.8046C69.8176 75.9349 69.6338 76 69.4064 76C69.2578 76 69.1242 75.9795 69.0058 75.9384C68.8873 75.896 68.7814 75.8354 68.6884 75.7561L68.6866 75.2138H68.9549L69.022 75.5321C69.0631 75.5777 69.1189 75.6104 69.1888 75.631C69.2601 75.6515 69.3328 75.6618 69.4064 75.6618C69.5335 75.6618 69.6325 75.631 69.7038 75.5697C69.7764 75.5065 69.8126 75.4246 69.8126 75.3236C69.8126 75.2286 69.7825 75.1499 69.722 75.0887C69.6628 75.027 69.5498 74.9738 69.3829 74.9282C69.1447 74.8653 68.9652 74.7796 68.8445 74.6715C68.7236 74.563 68.6631 74.4167 68.6631 74.2322C68.6631 74.039 68.7307 73.8741 68.8662 73.738C69.0027 73.6019 69.1799 73.5339 69.3975 73.5339C69.5461 73.5339 69.6798 73.5573 69.7981 73.6042C69.9166 73.651 70.0151 73.7162 70.0938 73.7996L70.1118 74.3243Z" fill="#999591"/>
<path d="M45.955 35.9208L46.1509 35.8879L47.0738 33H47.3803L48.2869 35.8879L48.4809 35.9208V36.1975H47.723V35.9208L47.9225 35.8791L47.7484 35.2905H46.6912L46.5117 35.8791L46.7112 35.9208V36.1975H45.955V35.9208ZM46.8018 34.9282H47.6396L47.2298 33.5556H47.2189L46.8018 34.9282Z" fill="#999591"/>
<path d="M49.2081 34.1003L48.9832 34.1486L49.2389 35.3323L49.2806 35.62H49.2915L49.3423 35.3323L49.7339 33.8213H50.0204L50.4141 35.3323L50.47 35.6529H50.4811L50.5337 35.3323L50.7748 34.1486L50.5464 34.1003V33.8213H51.2934V34.1003L51.1228 34.131L50.628 36.1975H50.3396L49.9588 34.7503L49.8772 34.3506L49.8663 34.3528L49.7902 34.7503L49.4166 36.1975H49.1283L48.6333 34.131L48.461 34.1003V33.8213H49.2081V34.1003Z" fill="#999591"/>
<path d="M52.4793 36.2436C52.206 36.2436 51.9884 36.1338 51.8266 35.9142C51.6657 35.6932 51.5852 35.4069 51.5852 35.0556V34.9589C51.5852 34.6207 51.6681 34.3396 51.8337 34.1156C52.0006 33.8902 52.1976 33.7774 52.4249 33.7774C52.6885 33.7774 52.8879 33.8741 53.0233 34.0673C53.1599 34.2606 53.2282 34.5182 53.2282 34.8403V35.1105H51.9552L51.9499 35.1214C51.9533 35.3498 52.0011 35.538 52.093 35.6858C52.1849 35.8322 52.3138 35.9054 52.4793 35.9054C52.6003 35.9054 52.7059 35.885 52.7965 35.844C52.8884 35.8015 52.9676 35.7437 53.0342 35.6705L53.1738 35.9516C53.1036 36.0336 53.0107 36.1031 52.8945 36.1602C52.7796 36.2158 52.6412 36.2436 52.4793 36.2436ZM52.4249 34.1178C52.3053 34.1178 52.2031 34.1793 52.1184 34.3023C52.0339 34.4238 51.9818 34.5768 51.9626 34.7613L51.9663 34.7723H52.871V34.7152C52.871 34.5453 52.8335 34.4033 52.7585 34.2891C52.6835 34.1749 52.5723 34.1178 52.4249 34.1178Z" fill="#999591"/>
<path d="M55.0831 34.568H54.8148L54.7567 34.2825C54.7134 34.2327 54.6582 34.1932 54.5919 34.1639C54.5264 34.1332 54.4522 34.1178 54.3688 34.1178C54.2418 34.1178 54.1475 34.1515 54.086 34.2188C54.0242 34.2862 53.9935 34.3674 53.9935 34.4626C53.9935 34.5563 54.0207 34.6302 54.0751 34.6844C54.1295 34.7386 54.2399 34.7869 54.4068 34.8294C54.6548 34.8938 54.8391 34.9816 54.96 35.0929C55.0807 35.2027 55.1412 35.3506 55.1412 35.5365C55.1412 35.7473 55.0704 35.9179 54.9291 36.0482C54.7889 36.1785 54.6051 36.2436 54.3778 36.2436C54.2291 36.2436 54.0955 36.2231 53.9772 36.1822C53.8586 36.1397 53.753 36.0789 53.6598 35.9999L53.6579 35.4574H53.9262L53.9935 35.7759C54.0345 35.8213 54.0902 35.8542 54.1602 35.8747C54.2315 35.8952 54.3041 35.9054 54.3778 35.9054C54.5048 35.9054 54.6038 35.8747 54.6751 35.8132C54.7477 35.7503 54.7839 35.6683 54.7839 35.5672C54.7839 35.4721 54.7538 35.3938 54.6933 35.3323C54.6342 35.2708 54.5211 35.2173 54.3543 35.1719C54.1161 35.109 53.9365 35.0233 53.8158 34.915C53.6949 34.8067 53.6344 34.6603 53.6344 34.4758C53.6344 34.2825 53.702 34.1178 53.8375 33.9817C53.974 33.8455 54.1512 33.7774 54.3688 33.7774C54.5175 33.7774 54.6511 33.8008 54.7696 33.8477C54.8879 33.8945 54.9864 33.9597 55.0651 34.0432L55.0831 34.568Z" fill="#999591"/>
<path d="M55.4768 34.9875C55.4768 34.6361 55.5552 34.3469 55.7124 34.12C55.8695 33.8916 56.0828 33.7774 56.3525 33.7774C56.6234 33.7774 56.8373 33.8909 56.9944 34.1178C57.1529 34.3447 57.2321 34.6346 57.2321 34.9875V35.0358C57.2321 35.3901 57.1534 35.68 56.9963 35.9054C56.8391 36.1309 56.6258 36.2436 56.3562 36.2436C56.0842 36.2436 55.8695 36.1309 55.7124 35.9054C55.5552 35.6785 55.4768 35.3886 55.4768 35.0358V34.9875ZM55.8338 35.0358C55.8338 35.2876 55.8774 35.4955 55.9645 35.6595C56.0527 35.8235 56.1832 35.9054 56.3562 35.9054C56.5254 35.9054 56.654 35.8235 56.7425 35.6595C56.8307 35.4955 56.8748 35.2876 56.8748 35.0358V34.9875C56.8748 34.7386 56.8307 34.5314 56.7425 34.366C56.654 34.2005 56.5241 34.1178 56.3525 34.1178C56.1808 34.1178 56.0514 34.2005 55.9645 34.366C55.8774 34.5314 55.8338 34.7386 55.8338 34.9875V35.0358Z" fill="#999591"/>
<path d="M57.4895 35.9208L57.785 35.8593V34.1617L57.4895 34.1003V33.8213H58.1058L58.1296 34.131C58.1925 34.0183 58.2733 33.9311 58.3725 33.8697C58.4716 33.8082 58.5864 33.7774 58.7172 33.7774C58.8476 33.7774 58.9593 33.814 59.0525 33.8872C59.1468 33.9604 59.2176 34.0702 59.2646 34.2166C59.3264 34.082 59.408 33.9751 59.5094 33.896C59.611 33.817 59.7293 33.7774 59.8648 33.7774C60.0655 33.7774 60.2239 33.8609 60.3399 34.0278C60.4561 34.1932 60.5142 34.4428 60.5142 34.7767V35.8593L60.8097 35.9208V36.1975H59.8595V35.9208L60.155 35.8593V34.7723C60.155 34.538 60.1218 34.3726 60.0552 34.2759C59.9887 34.1778 59.8902 34.1288 59.7597 34.1288C59.6351 34.1288 59.5347 34.1822 59.4587 34.2891C59.3837 34.3945 59.3401 34.5278 59.3282 34.6888V35.8593L59.6237 35.9208V36.1975H58.6754V35.9208L58.9709 35.8593V34.7723C58.9709 34.5497 58.9363 34.3872 58.8674 34.2847C58.7998 34.1808 58.7013 34.1288 58.5719 34.1288C58.4631 34.1288 58.3736 34.1559 58.3036 34.2101C58.2334 34.2642 58.1798 34.3404 58.1423 34.4384V35.8593L58.4378 35.9208V36.1975H57.4895V35.9208Z" fill="#999591"/>
<path d="M61.9484 36.2436C61.6753 36.2436 61.4577 36.1338 61.2956 35.9142C61.1348 35.6932 61.0545 35.4069 61.0545 35.0556V34.9589C61.0545 34.6207 61.1372 34.3396 61.303 34.1156C61.4696 33.8902 61.6669 33.7774 61.894 33.7774C62.1575 33.7774 62.3569 33.8741 62.4924 34.0673C62.6289 34.2606 62.6973 34.5182 62.6973 34.8403V35.1105H61.4245L61.4189 35.1214C61.4226 35.3498 61.4704 35.538 61.5623 35.6858C61.6539 35.8322 61.7828 35.9054 61.9484 35.9054C62.0693 35.9054 62.175 35.885 62.2658 35.844C62.3577 35.8015 62.4369 35.7437 62.5032 35.6705L62.6429 35.9516C62.5729 36.0336 62.4797 36.1031 62.3638 36.1602C62.2489 36.2158 62.1105 36.2436 61.9484 36.2436ZM61.894 34.1178C61.7744 34.1178 61.6722 34.1793 61.5877 34.3023C61.5029 34.4238 61.4509 34.5768 61.4316 34.7613L61.4353 34.7723H62.34V34.7152C62.34 34.5453 62.3025 34.4033 62.2278 34.2891C62.1528 34.1749 62.0416 34.1178 61.894 34.1178Z" fill="#999591"/>
<path d="M84.7446 67.0383H24V67.6809H84.7446V67.0383Z" fill="#FF9000"/>
<path d="M84.7446 41.3377H24V41.9802H84.7446V41.3377Z" fill="#FF9000"/>
<path d="M38.0694 53.7948V58.3104C38.0694 58.6942 38.0051 59.06 37.8763 59.4078C37.7575 59.7436 37.5941 60.0374 37.3861 60.2893C37.1782 60.5412 36.9306 60.7391 36.6434 60.883C36.3661 61.0389 36.069 61.1169 35.7521 61.1169C35.4352 61.1169 35.1381 61.0449 34.8608 60.901C34.5835 60.7571 34.3409 60.5652 34.1329 60.3253C33.925 60.0734 33.7566 59.7856 33.6279 59.4617C33.5091 59.1259 33.4447 58.7661 33.4348 58.3823V55.0541C33.4051 54.6823 33.2664 54.4124 33.0189 54.2445C33.1575 54.1606 33.2961 54.1186 33.4348 54.1186V49.8728C33.4447 49.4891 33.5091 49.1292 33.6279 48.7934C33.7566 48.4576 33.925 48.1698 34.1329 47.9299C34.3409 47.678 34.5835 47.4801 34.8608 47.3362C35.1381 47.1922 35.4352 47.1203 35.7521 47.1203C36.069 47.1203 36.3661 47.1982 36.6434 47.3542C36.9306 47.4981 37.1782 47.696 37.3861 47.9479C37.5941 48.1997 37.7575 48.4996 37.8763 48.8474C38.0051 49.1832 38.0694 49.549 38.0694 49.9448C38.0694 50.1487 38.0843 50.2986 38.114 50.3946C38.1536 50.4905 38.1932 50.5685 38.2328 50.6284C38.2724 50.6884 38.3071 50.7424 38.3368 50.7903C38.3764 50.8383 38.3962 50.9163 38.3962 51.0242H37.6238C37.4653 51.0002 37.3861 50.8983 37.3861 50.7184C37.3861 50.8983 37.3069 51.0002 37.1484 51.0242H36.3612C36.3612 50.9163 36.376 50.8383 36.4057 50.7903C36.4453 50.7424 36.4849 50.6884 36.5245 50.6284C36.5641 50.5685 36.5988 50.4905 36.6285 50.3946C36.6681 50.2986 36.6879 50.1427 36.6879 49.9268V49.9088C36.6879 49.7529 36.683 49.567 36.6731 49.3511C36.6632 49.1232 36.6285 48.9073 36.5691 48.7035C36.5097 48.4996 36.4156 48.3256 36.2869 48.1817C36.1581 48.0378 35.9799 47.9659 35.7521 47.9659C35.5144 47.9659 35.3312 48.0438 35.2025 48.1997C35.0836 48.3436 34.9945 48.5175 34.9351 48.7214C34.8757 48.9253 34.841 49.1412 34.8311 49.3691C34.8212 49.597 34.8163 49.7889 34.8163 49.9448V54.1186C34.9549 54.1186 35.0935 54.1606 35.2322 54.2445C34.9846 54.4124 34.846 54.6823 34.8163 55.0541V58.3104C34.8163 58.4663 34.8212 58.6582 34.8311 58.8861C34.841 59.102 34.8757 59.3178 34.9351 59.5337C34.9945 59.7376 35.0836 59.9115 35.2025 60.0554C35.3312 60.1994 35.5144 60.2713 35.7521 60.2713C35.9898 60.2713 36.168 60.1994 36.2869 60.0554C36.4156 59.9115 36.5097 59.7376 36.5691 59.5337C36.6285 59.3178 36.6632 59.102 36.6731 58.8861C36.683 58.6582 36.6879 58.4663 36.6879 58.3104V54.6223C36.579 54.6343 36.4849 54.6883 36.4057 54.7842C36.3364 54.8802 36.3017 54.9941 36.3017 55.1261V55.144C36.2918 55.324 36.2522 55.4799 36.1829 55.6118C36.1235 55.7317 36.0343 55.8397 35.9155 55.9356C35.7967 56.0196 35.6234 56.0616 35.3956 56.0616V53.7948H38.0694ZM34.2369 53.273C34.2369 53.2011 34.232 53.1291 34.2221 53.0572C34.2221 52.9852 34.2221 52.9192 34.2221 52.8593V52.4455C34.2122 52.1816 34.2072 51.9298 34.2072 51.6899C34.2072 51.45 34.2023 51.2221 34.1924 51.0062C34.1825 50.8983 34.1775 50.8023 34.1775 50.7184C34.1775 50.6224 34.1726 50.5265 34.1627 50.4305C34.1627 50.3466 34.1577 50.2686 34.1478 50.1967C34.1478 50.1127 34.1478 50.0407 34.1478 49.9808C34.1478 49.9208 34.1429 49.8668 34.1329 49.8189C34.1329 49.7709 34.1329 49.7289 34.1329 49.6929V49.603C34.123 49.603 34.1181 49.609 34.1181 49.621V49.6929C34.1181 49.7289 34.1131 49.7709 34.1032 49.8189C34.1032 49.8668 34.1032 49.9208 34.1032 49.9808C34.1032 50.0407 34.0983 50.1127 34.0884 50.1967C34.0884 50.2686 34.0884 50.3466 34.0884 50.4305C34.0785 50.5265 34.0735 50.6224 34.0735 50.7184C34.0735 50.8023 34.0686 50.8983 34.0587 51.0062C34.0488 51.2221 34.0438 51.45 34.0438 51.6899C34.0438 51.9298 34.0389 52.1816 34.029 52.4455V52.8593C34.029 52.9192 34.024 52.9852 34.0141 53.0572C34.0141 53.1291 34.0141 53.2011 34.0141 53.273V54.9461C34.0141 54.9821 34.0141 55.0181 34.0141 55.0541C34.024 55.0901 34.029 55.1201 34.029 55.144V55.7557C34.029 55.8876 34.029 56.0196 34.029 56.1515C34.0389 56.2714 34.0438 56.3914 34.0438 56.5113C34.0438 56.6433 34.0438 56.7692 34.0438 56.8891C34.0537 56.997 34.0587 57.099 34.0587 57.1949C34.0686 57.3029 34.0735 57.4048 34.0735 57.5008C34.0735 57.5967 34.0785 57.6867 34.0884 57.7707C34.0884 57.8666 34.0884 57.9506 34.0884 58.0225C34.0983 58.0945 34.1032 58.1605 34.1032 58.2204C34.1032 58.2804 34.1032 58.3343 34.1032 58.3823C34.1131 58.4303 34.1181 58.4723 34.1181 58.5083V58.5982C34.1181 58.6102 34.123 58.6162 34.1329 58.6162V58.5083C34.1329 58.4723 34.1329 58.4303 34.1329 58.3823C34.1429 58.3343 34.1478 58.2804 34.1478 58.2204C34.1478 58.1605 34.1478 58.0945 34.1478 58.0225C34.1577 57.9506 34.1627 57.8666 34.1627 57.7707C34.1726 57.6867 34.1775 57.5967 34.1775 57.5008C34.1775 57.4048 34.1825 57.3029 34.1924 57.1949C34.1924 57.099 34.1924 56.997 34.1924 56.8891C34.2023 56.7692 34.2072 56.6433 34.2072 56.5113C34.2072 56.3914 34.2072 56.2714 34.2072 56.1515C34.2171 56.0196 34.2221 55.8876 34.2221 55.7557V55.3599C34.2221 55.264 34.227 55.192 34.2369 55.144V53.273ZM37.4752 55.8816C37.4653 55.7617 37.4604 55.6538 37.4604 55.5578C37.4604 55.4499 37.4554 55.3479 37.4455 55.252C37.4356 55.0721 37.4208 54.9222 37.401 54.8022C37.401 54.7782 37.396 54.7542 37.3861 54.7303C37.3861 54.7063 37.3861 54.6883 37.3861 54.6763V54.6223L37.3712 54.6403V54.6763C37.3712 54.6883 37.3663 54.7063 37.3564 54.7303C37.3564 54.7542 37.3564 54.7782 37.3564 54.8022C37.3366 54.9222 37.3217 55.0721 37.3118 55.252C37.3019 55.3479 37.297 55.4499 37.297 55.5578C37.297 55.6538 37.292 55.7617 37.2821 55.8816V56.0616C37.2821 56.0975 37.2772 56.1335 37.2673 56.1695C37.2673 56.1935 37.2673 56.2175 37.2673 56.2415V56.997C37.2673 57.0331 37.2722 57.063 37.2821 57.087V57.3569C37.2821 57.4168 37.2821 57.4708 37.2821 57.5188C37.292 57.5668 37.297 57.6207 37.297 57.6807C37.297 57.7407 37.297 57.7946 37.297 57.8426C37.3069 57.8906 37.3118 57.9386 37.3118 57.9865C37.3217 58.0345 37.3267 58.0825 37.3267 58.1304C37.3267 58.1665 37.3316 58.2024 37.3415 58.2384C37.3415 58.2744 37.3415 58.3104 37.3415 58.3463C37.3514 58.3823 37.3564 58.4123 37.3564 58.4363C37.3564 58.4603 37.3564 58.4843 37.3564 58.5083C37.3663 58.5322 37.3712 58.5502 37.3712 58.5622V58.5982C37.3712 58.6102 37.3762 58.6162 37.3861 58.6162V58.5622C37.3861 58.5502 37.3861 58.5322 37.3861 58.5083C37.396 58.4843 37.401 58.4603 37.401 58.4363C37.401 58.4123 37.401 58.3823 37.401 58.3463C37.4109 58.3104 37.4158 58.2744 37.4158 58.2384C37.4257 58.2024 37.4307 58.1665 37.4307 58.1304C37.4307 58.0825 37.4356 58.0345 37.4455 57.9865C37.4455 57.9386 37.4455 57.8906 37.4455 57.8426C37.4554 57.7946 37.4604 57.7407 37.4604 57.6807C37.4604 57.6207 37.4604 57.5668 37.4604 57.5188C37.4703 57.4708 37.4752 57.4168 37.4752 57.3569V57.177C37.4752 57.129 37.4802 57.099 37.4901 57.087V56.2415C37.4901 56.2175 37.4851 56.1935 37.4752 56.1695C37.4752 56.1335 37.4752 56.0975 37.4752 56.0616V55.8816Z" fill="#F4EDE8"/>
<path d="M43.4659 54.1366C43.6342 54.1366 43.7728 54.1786 43.8818 54.2625C43.7728 54.3465 43.6788 54.4604 43.5995 54.6043C43.5302 54.7482 43.4857 54.9042 43.4659 55.0721V57.7886C43.456 58.1725 43.3866 58.5322 43.2579 58.8681C43.1391 59.1919 42.9756 59.4798 42.7677 59.7316C42.5597 59.9715 42.3171 60.1634 42.0398 60.3073C41.7625 60.4512 41.4654 60.5232 41.1485 60.5232C40.8316 60.5232 40.5345 60.4512 40.2573 60.3073C39.98 60.1634 39.7373 59.9715 39.5294 59.7316C39.3214 59.4798 39.1531 59.1919 39.0243 58.8681C38.9055 58.5322 38.8411 58.1725 38.8312 57.7886V55.0721C38.8015 54.7003 38.6629 54.4304 38.4153 54.2625C38.5242 54.1786 38.6629 54.1366 38.8312 54.1366V50.6644C38.8411 50.2926 38.9055 49.9388 39.0243 49.603C39.1531 49.2672 39.3214 48.9793 39.5294 48.7394C39.7373 48.4876 39.98 48.2897 40.2573 48.1458C40.5345 48.0018 40.8316 47.9299 41.1485 47.9299C41.4654 47.9299 41.7625 48.0018 42.0398 48.1458C42.3171 48.2897 42.5597 48.4876 42.7677 48.7394C42.9756 48.9793 43.1391 49.2672 43.2579 49.603C43.3866 49.9388 43.456 50.2926 43.4659 50.6644V54.1366ZM39.6334 53.4889C39.6334 53.4289 39.6284 53.375 39.6185 53.327C39.6185 53.2671 39.6185 53.2071 39.6185 53.1471V52.8053C39.6086 52.5774 39.6037 52.3615 39.6037 52.1576C39.6037 51.9537 39.5987 51.7618 39.5888 51.5819C39.5789 51.498 39.574 51.414 39.574 51.3301C39.574 51.2461 39.569 51.1681 39.5591 51.0962C39.5591 51.0242 39.5542 50.9583 39.5443 50.8983C39.5443 50.8383 39.5443 50.7843 39.5443 50.7364C39.5443 50.6764 39.5393 50.6284 39.5294 50.5925C39.5294 50.5445 39.5294 50.5085 39.5294 50.4845V50.3946C39.5195 50.3946 39.5145 50.4006 39.5145 50.4126V50.4845C39.5145 50.5085 39.5096 50.5445 39.4997 50.5925C39.4997 50.6284 39.4997 50.6764 39.4997 50.7364C39.4997 50.7843 39.4947 50.8383 39.4848 50.8983C39.4848 50.9583 39.4848 51.0242 39.4848 51.0962C39.4749 51.1681 39.47 51.2461 39.47 51.3301C39.47 51.414 39.465 51.498 39.4551 51.5819C39.4452 51.7618 39.4403 51.9537 39.4403 52.1576C39.4403 52.3615 39.4353 52.5774 39.4254 52.8053V53.1471C39.4254 53.2071 39.4205 53.2671 39.4106 53.327C39.4106 53.375 39.4106 53.4289 39.4106 53.4889V54.9102C39.4106 54.9941 39.4155 55.0541 39.4254 55.0901V55.6118C39.4254 55.7198 39.4254 55.8277 39.4254 55.9356C39.4353 56.0436 39.4403 56.1455 39.4403 56.2415C39.4403 56.3494 39.4403 56.4514 39.4403 56.5473C39.4502 56.6313 39.4551 56.7212 39.4551 56.8172C39.465 56.9131 39.47 57.003 39.47 57.087C39.47 57.159 39.4749 57.2309 39.4848 57.3029C39.4848 57.3749 39.4848 57.4408 39.4848 57.5008C39.4947 57.5608 39.4997 57.6207 39.4997 57.6807C39.4997 57.7407 39.4997 57.7946 39.4997 57.8426C39.5096 57.8786 39.5145 57.9086 39.5145 57.9326V57.9865C39.5145 57.9985 39.5195 58.0045 39.5294 58.0045V57.9326C39.5294 57.9086 39.5294 57.8786 39.5294 57.8426C39.5393 57.7946 39.5443 57.7407 39.5443 57.6807C39.5443 57.6207 39.5443 57.5608 39.5443 57.5008C39.5542 57.4408 39.5591 57.3749 39.5591 57.3029C39.569 57.2309 39.574 57.159 39.574 57.087C39.574 57.003 39.5789 56.9131 39.5888 56.8172C39.5888 56.7212 39.5888 56.6313 39.5888 56.5473C39.5987 56.4514 39.6037 56.3494 39.6037 56.2415C39.6037 56.1455 39.6037 56.0436 39.6037 55.9356C39.6136 55.8277 39.6185 55.7198 39.6185 55.6118V55.0901C39.6284 55.0541 39.6334 54.9941 39.6334 54.9102V53.4889ZM42.0844 50.7364C42.0844 50.5805 42.0794 50.3886 42.0695 50.1607C42.0596 49.9328 42.025 49.7169 41.9655 49.513C41.9061 49.3091 41.8121 49.1352 41.6833 48.9913C41.5645 48.8354 41.3862 48.7574 41.1485 48.7574C40.9109 48.7574 40.7277 48.8354 40.5989 48.9913C40.4801 49.1352 40.391 49.3091 40.3315 49.513C40.2721 49.7169 40.2375 49.9328 40.2276 50.1607C40.2177 50.3886 40.2127 50.5805 40.2127 50.7364V54.1366C40.3811 54.1366 40.5197 54.1786 40.6286 54.2625C40.3811 54.4304 40.2424 54.7003 40.2127 55.0721V57.7167C40.2127 57.8726 40.2177 58.0645 40.2276 58.2924C40.2375 58.5083 40.2721 58.7241 40.3315 58.94C40.391 59.1439 40.4801 59.3178 40.5989 59.4618C40.7277 59.6057 40.9109 59.6777 41.1485 59.6777C41.3862 59.6777 41.5645 59.6057 41.6833 59.4618C41.8121 59.3178 41.9061 59.1439 41.9655 58.94C42.025 58.7241 42.0596 58.5083 42.0695 58.2924C42.0794 58.0645 42.0844 57.8726 42.0844 57.7167V55.0721C42.0646 54.7123 41.9259 54.4424 41.6685 54.2625C41.7774 54.1786 41.916 54.1366 42.0844 54.1366V50.7364ZM42.8865 53.4889C42.8865 53.4289 42.8865 53.375 42.8865 53.327C42.8865 53.2671 42.8816 53.2071 42.8717 53.1471V52.8053C42.8717 52.5774 42.8667 52.3615 42.8568 52.1576C42.8568 51.9537 42.8519 51.7618 42.842 51.5819C42.832 51.498 42.8271 51.414 42.8271 51.3301C42.8271 51.2461 42.8221 51.1681 42.8122 51.0962C42.8122 51.0242 42.8073 50.9583 42.7974 50.8983C42.7974 50.8383 42.7974 50.7843 42.7974 50.7364C42.7974 50.6764 42.7924 50.6284 42.7825 50.5925C42.7825 50.5445 42.7825 50.5085 42.7825 50.4845V50.3946C42.7726 50.3946 42.7677 50.4006 42.7677 50.4126V50.4845C42.7677 50.5085 42.7677 50.5445 42.7677 50.5925C42.7677 50.6284 42.7627 50.6764 42.7528 50.7364C42.7528 50.7843 42.7479 50.8383 42.738 50.8983C42.738 50.9583 42.738 51.0242 42.738 51.0962C42.7281 51.1681 42.7231 51.2461 42.7231 51.3301C42.7231 51.414 42.7182 51.498 42.7083 51.5819C42.6984 51.7618 42.6934 51.9537 42.6934 52.1576C42.6934 52.3615 42.6885 52.5774 42.6786 52.8053V53.4889C42.6687 53.6089 42.6637 53.7288 42.6637 53.8487C42.6637 53.9687 42.6637 54.0886 42.6637 54.2085C42.6637 54.3285 42.6637 54.4484 42.6637 54.5683C42.6637 54.6763 42.6687 54.7902 42.6786 54.9102V55.6118C42.6786 55.7198 42.6786 55.8277 42.6786 55.9356C42.6885 56.0436 42.6934 56.1455 42.6934 56.2415C42.6934 56.3494 42.6934 56.4514 42.6934 56.5473C42.7033 56.6313 42.7083 56.7212 42.7083 56.8172C42.7182 56.9131 42.7231 57.003 42.7231 57.087C42.7231 57.159 42.7281 57.2309 42.738 57.3029C42.738 57.3749 42.738 57.4408 42.738 57.5008C42.7479 57.5608 42.7528 57.6207 42.7528 57.6807C42.7627 57.7407 42.7677 57.7946 42.7677 57.8426C42.7677 57.8786 42.7677 57.9086 42.7677 57.9326V57.9865C42.7677 57.9985 42.7726 58.0045 42.7825 58.0045V57.9326C42.7825 57.9086 42.7825 57.8786 42.7825 57.8426C42.7924 57.7946 42.7974 57.7407 42.7974 57.6807C42.7974 57.6207 42.7974 57.5608 42.7974 57.5008C42.8073 57.4408 42.8122 57.3749 42.8122 57.3029C42.8221 57.2309 42.8271 57.159 42.8271 57.087C42.8271 57.003 42.832 56.9131 42.842 56.8172C42.842 56.7212 42.842 56.6313 42.842 56.5473C42.8519 56.4514 42.8568 56.3494 42.8568 56.2415C42.8568 56.1455 42.8568 56.0436 42.8568 55.9356C42.8667 55.8277 42.8717 55.7198 42.8717 55.6118V55.27C42.8717 55.246 42.8717 55.216 42.8717 55.18C42.8816 55.144 42.8865 55.1141 42.8865 55.0901V53.4889Z" fill="#F4EDE8"/>
<path d="M48.9783 51.8158C48.9783 52.3555 48.8694 52.8413 48.6515 53.273C48.4336 53.7048 48.1415 54.0406 47.7751 54.2805C47.9533 54.4484 48.1167 54.6463 48.2653 54.8742C48.4138 55.0901 48.5376 55.3299 48.6366 55.5938C48.7456 55.8577 48.8298 56.1275 48.8892 56.4034C48.9486 56.6792 48.9783 56.9491 48.9783 57.2129V58.3643C48.9684 58.7481 48.904 59.1079 48.7852 59.4438C48.6664 59.7676 48.5029 60.0554 48.295 60.3073C48.087 60.5472 47.8444 60.7391 47.5671 60.883C47.2898 61.0389 46.9927 61.1169 46.6758 61.1169H45.2795C45.2102 61.1169 45.1507 61.0869 45.1012 61.0269C45.0616 60.9669 45.0418 60.895 45.0418 60.811C45.0418 60.895 45.0171 60.9669 44.9676 61.0269C44.918 61.0869 44.8636 61.1169 44.8042 61.1169H44.0169C44.0169 61.0089 44.0317 60.931 44.0614 60.883C44.101 60.835 44.1407 60.781 44.1803 60.7211C44.2199 60.6731 44.2545 60.6012 44.2842 60.5052C44.3238 60.4093 44.3436 60.2593 44.3436 60.0554V55.0361C44.3139 54.6763 44.1753 54.4124 43.9277 54.2445C44.0565 54.1486 44.1951 54.1006 44.3436 54.1006V48.1817C44.3436 47.9778 44.3238 47.8279 44.2842 47.732C44.2545 47.636 44.2199 47.5641 44.1803 47.5161C44.1407 47.4561 44.101 47.4021 44.0614 47.3542C44.0317 47.3062 44.0169 47.2282 44.0169 47.1203H44.8042C44.8636 47.1203 44.918 47.1503 44.9676 47.2102C45.0171 47.2582 45.0418 47.3242 45.0418 47.4081C45.0418 47.2162 45.121 47.1203 45.2795 47.1203H46.6758C46.9927 47.1203 47.2898 47.1922 47.5671 47.3362C47.8444 47.4801 48.087 47.678 48.295 47.9299C48.5029 48.1698 48.6664 48.4576 48.7852 48.7934C48.904 49.1292 48.9684 49.4831 48.9783 49.8548V51.8158ZM45.1458 53.1471C45.1458 53.0632 45.1408 52.9852 45.1309 52.9132C45.1309 52.8293 45.1309 52.7513 45.1309 52.6794V52.2116C45.121 51.8997 45.1161 51.6059 45.1161 51.3301C45.1161 51.0542 45.1111 50.7963 45.1012 50.5565C45.0913 50.4246 45.0864 50.3046 45.0864 50.1967C45.0864 50.0887 45.0814 49.9868 45.0715 49.8908C45.0715 49.7949 45.0666 49.7049 45.0567 49.621C45.0567 49.525 45.0567 49.447 45.0567 49.3871C45.0567 49.3151 45.0517 49.2492 45.0418 49.1892C45.0418 49.1292 45.0418 49.0813 45.0418 49.0453V48.9373C45.0319 48.9493 45.027 48.9613 45.027 48.9733V49.0453C45.027 49.0813 45.022 49.1292 45.0121 49.1892C45.0121 49.2492 45.0121 49.3151 45.0121 49.3871C45.0121 49.447 45.0072 49.525 44.9973 49.621C44.9973 49.7049 44.9973 49.7949 44.9973 49.8908C44.9874 49.9868 44.9824 50.0887 44.9824 50.1967C44.9824 50.3046 44.9775 50.4246 44.9676 50.5565C44.9577 50.7963 44.9527 51.0542 44.9527 51.3301C44.9527 51.6059 44.9478 51.8997 44.9379 52.2116V52.6794C44.9379 52.7513 44.9379 52.8293 44.9379 52.9132C44.9379 52.9852 44.9329 53.0632 44.923 53.1471V55.0721C44.923 55.1201 44.923 55.162 44.923 55.198C44.9329 55.234 44.9379 55.276 44.9379 55.324V56.0076C44.9379 56.1635 44.9379 56.3194 44.9379 56.4753C44.9478 56.6193 44.9527 56.7572 44.9527 56.8891C44.9527 57.021 44.9527 57.153 44.9527 57.2849C44.9626 57.4168 44.9676 57.5488 44.9676 57.6807C44.9775 57.7407 44.9824 57.8006 44.9824 57.8606C44.9824 57.9086 44.9824 57.9626 44.9824 58.0225C44.9824 58.0825 44.9824 58.1364 44.9824 58.1844C44.9923 58.2324 44.9973 58.2804 44.9973 58.3283C44.9973 58.4243 44.9973 58.5202 44.9973 58.6162C45.0072 58.7002 45.0121 58.7781 45.0121 58.8501C45.0121 58.922 45.0121 58.988 45.0121 59.048C45.022 59.096 45.027 59.1379 45.027 59.1739V59.2639C45.027 59.2759 45.0319 59.2879 45.0418 59.2998V59.1739C45.0418 59.1379 45.0418 59.096 45.0418 59.048C45.0517 58.988 45.0567 58.922 45.0567 58.8501C45.0567 58.7781 45.0567 58.7002 45.0567 58.6162C45.0666 58.5202 45.0715 58.4243 45.0715 58.3283C45.0814 58.2804 45.0864 58.2324 45.0864 58.1844C45.0864 58.1364 45.0864 58.0825 45.0864 58.0225C45.0864 57.9626 45.0864 57.9086 45.0864 57.8606C45.0963 57.8006 45.1012 57.7407 45.1012 57.6807C45.1012 57.5488 45.1012 57.4168 45.1012 57.2849C45.1111 57.153 45.1161 57.021 45.1161 56.8891C45.1161 56.7572 45.1161 56.6193 45.1161 56.4753C45.126 56.3194 45.1309 56.1635 45.1309 56.0076V55.5578C45.1309 55.4499 45.1359 55.3719 45.1458 55.324V53.1471ZM48.2058 58.0045C48.1959 58.0405 48.191 58.1005 48.191 58.1844V58.5083C48.191 58.5682 48.186 58.6222 48.1761 58.6702C48.1761 58.7181 48.1761 58.7661 48.1761 58.8141C48.1761 58.8621 48.1712 58.9041 48.1613 58.94C48.1613 58.976 48.1613 59.012 48.1613 59.048V59.102C48.1514 59.1139 48.1464 59.1319 48.1464 59.1559V59.2459C48.1365 59.2578 48.1316 59.2699 48.1316 59.2819V59.3178C48.1316 59.3298 48.1266 59.3418 48.1167 59.3538C48.1167 59.3538 48.1167 59.3598 48.1167 59.3718C48.1167 59.3838 48.1118 59.3958 48.1019 59.4078H48.1167C48.1167 59.4078 48.1217 59.3958 48.1316 59.3718C48.1316 59.3718 48.1365 59.3598 48.1464 59.3358C48.1563 59.3238 48.1613 59.3118 48.1613 59.2998C48.1712 59.2879 48.1761 59.2759 48.1761 59.2639C48.186 59.2518 48.191 59.2399 48.191 59.2279C48.2009 59.2159 48.2058 59.1979 48.2058 59.1739C48.2257 59.1499 48.2356 59.1199 48.2356 59.084C48.2554 59.036 48.2752 58.952 48.295 58.8321C48.3148 58.7601 48.3247 58.7121 48.3247 58.6882C48.3346 58.6642 48.3395 58.6402 48.3395 58.6162C48.3395 58.5802 48.3445 58.5502 48.3544 58.5262C48.3544 58.5023 48.3544 58.4783 48.3544 58.4543C48.3643 58.4183 48.3692 58.3883 48.3692 58.3643C48.3792 58.3283 48.3841 58.2744 48.3841 58.2024C48.394 58.1425 48.399 58.0825 48.399 58.0225C48.399 57.9626 48.4039 57.9026 48.4138 57.8426V57.087C48.4138 57.027 48.4089 56.9671 48.399 56.9071C48.399 56.8472 48.394 56.7872 48.3841 56.7272C48.3841 56.6552 48.3792 56.6013 48.3692 56.5653C48.3692 56.5413 48.3643 56.5173 48.3544 56.4933C48.3544 56.4573 48.3544 56.4274 48.3544 56.4034C48.3445 56.3794 48.3395 56.3554 48.3395 56.3314C48.3395 56.2954 48.3346 56.2654 48.3247 56.2415C48.3247 56.2175 48.3197 56.1935 48.3098 56.1695C48.3098 56.1455 48.3098 56.1215 48.3098 56.0975C48.29 56.0256 48.2801 55.9836 48.2801 55.9716C48.2702 55.9356 48.2554 55.8936 48.2356 55.8457C48.2356 55.8097 48.2257 55.7797 48.2058 55.7557C48.2058 55.7198 48.1959 55.6897 48.1761 55.6658C48.1563 55.6178 48.1415 55.5818 48.1316 55.5578C48.1217 55.5458 48.1167 55.5338 48.1167 55.5219H48.1019C48.1019 55.5219 48.1068 55.5338 48.1167 55.5578C48.1167 55.5698 48.1167 55.5818 48.1167 55.5938C48.1266 55.5938 48.1316 55.5998 48.1316 55.6118C48.1316 55.6358 48.1365 55.6598 48.1464 55.6837V55.7737C48.1563 55.7977 48.1613 55.8277 48.1613 55.8637C48.1613 55.9236 48.1662 55.9656 48.1761 55.9896V56.1155C48.186 56.1635 48.191 56.2115 48.191 56.2595C48.191 56.3074 48.191 56.3614 48.191 56.4214V56.5833C48.191 56.6073 48.191 56.6373 48.191 56.6732C48.2009 56.6972 48.2058 56.7212 48.2058 56.7452V58.0045ZM47.5968 57.2129C47.5968 57.057 47.5919 56.8352 47.582 56.5473C47.572 56.2595 47.5374 55.9716 47.478 55.6837C47.4186 55.3959 47.3245 55.15 47.1958 54.9461C47.0769 54.7303 46.8986 54.6223 46.661 54.6223H46.1262C46.0173 54.6223 45.9232 54.6703 45.844 54.7662C45.7648 54.8622 45.7251 54.9761 45.7251 55.1081V59.7856C45.7251 59.9175 45.7648 60.0315 45.844 60.1274C45.9232 60.2114 46.0173 60.2593 46.1262 60.2713H46.661C46.8986 60.2713 47.0769 60.1994 47.1958 60.0554C47.3245 59.8995 47.4186 59.7196 47.478 59.5157C47.5374 59.3118 47.572 59.096 47.582 58.8681C47.5919 58.6402 47.5968 58.4483 47.5968 58.2924V57.2129ZM47.5968 49.9268C47.5968 49.7709 47.5919 49.585 47.582 49.3691C47.572 49.1412 47.5374 48.9253 47.478 48.7214C47.4186 48.5175 47.3245 48.3436 47.1958 48.1997C47.0769 48.0438 46.8986 47.9659 46.661 47.9659H46.1262C46.0173 47.9659 45.9232 48.0138 45.844 48.1098C45.7648 48.2057 45.7251 48.3196 45.7251 48.4516V53.291C45.7251 53.4229 45.7648 53.5369 45.844 53.6328C45.9232 53.7288 46.0173 53.7768 46.1262 53.7768H46.661C46.8986 53.7768 47.0769 53.7048 47.1958 53.5609C47.3245 53.417 47.4186 53.243 47.478 53.0392C47.5374 52.8233 47.572 52.6074 47.582 52.3915C47.5919 52.1636 47.5968 51.9717 47.5968 51.8158V49.9268ZM48.2653 52.3015C48.2851 52.2296 48.295 52.1816 48.295 52.1576C48.3148 52.1096 48.3247 52.0617 48.3247 52.0137C48.3346 51.9897 48.3395 51.9657 48.3395 51.9418C48.3395 51.9057 48.3445 51.8758 48.3544 51.8518C48.3544 51.8278 48.3544 51.8038 48.3544 51.7798C48.3643 51.7439 48.3692 51.7079 48.3692 51.6719C48.3792 51.6359 48.3841 51.5759 48.3841 51.492C48.394 51.432 48.399 51.372 48.399 51.3121C48.399 51.2521 48.4039 51.1921 48.4138 51.1322V50.7364C48.4138 50.6045 48.4138 50.4785 48.4138 50.3586C48.4138 50.2267 48.4089 50.1007 48.399 49.9808C48.3891 49.9448 48.3841 49.9148 48.3841 49.8908C48.3841 49.8548 48.3792 49.8249 48.3692 49.8009C48.3692 49.7169 48.3643 49.6569 48.3544 49.621C48.3445 49.561 48.3346 49.507 48.3247 49.459C48.3247 49.4111 48.3197 49.3631 48.3098 49.3151C48.29 49.2432 48.2801 49.1952 48.2801 49.1712C48.2603 49.1232 48.2504 49.0873 48.2504 49.0633C48.2306 49.0153 48.2158 48.9793 48.2058 48.9553C48.2058 48.9193 48.1959 48.8894 48.1761 48.8654C48.1662 48.8294 48.1514 48.7874 48.1316 48.7394L48.1019 48.7035V48.7214C48.1019 48.7334 48.1019 48.7394 48.1019 48.7394C48.1118 48.7394 48.1167 48.7454 48.1167 48.7574C48.1266 48.7694 48.1316 48.7874 48.1316 48.8114C48.1316 48.8354 48.1365 48.8594 48.1464 48.8834V48.9733C48.1563 48.9973 48.1613 49.0333 48.1613 49.0813C48.1613 49.1052 48.1613 49.1292 48.1613 49.1532C48.1712 49.1652 48.1761 49.1832 48.1761 49.2072V49.3331C48.186 49.3811 48.191 49.4291 48.191 49.4771C48.191 49.525 48.191 49.579 48.191 49.639V49.8189C48.191 49.8428 48.191 49.8728 48.191 49.9088C48.2009 49.9328 48.2058 49.9568 48.2058 49.9808V51.3121C48.1959 51.3481 48.191 51.408 48.191 51.492V51.8338C48.191 51.8938 48.186 51.9477 48.1761 51.9957C48.1761 52.0437 48.1761 52.0917 48.1761 52.1396C48.1761 52.1876 48.1712 52.2356 48.1613 52.2836C48.1613 52.3195 48.1613 52.3555 48.1613 52.3915C48.1613 52.4515 48.1563 52.4874 48.1464 52.4994V52.6074C48.1365 52.6074 48.1316 52.6194 48.1316 52.6434V52.6794C48.1316 52.6913 48.1266 52.7033 48.1167 52.7153C48.1167 52.7153 48.1167 52.7213 48.1167 52.7333C48.1167 52.7453 48.1118 52.7573 48.1019 52.7693L48.1316 52.7333C48.1316 52.7213 48.1316 52.7153 48.1316 52.7153C48.1415 52.7033 48.1464 52.6913 48.1464 52.6794C48.1563 52.6794 48.1613 52.6674 48.1613 52.6434C48.1712 52.6434 48.1761 52.6314 48.1761 52.6074C48.186 52.6074 48.191 52.5954 48.191 52.5714C48.2009 52.5594 48.2058 52.5414 48.2058 52.5174C48.2257 52.4934 48.2356 52.4635 48.2356 52.4275C48.2554 52.3555 48.2653 52.3135 48.2653 52.3015Z" fill="#F4EDE8"/>
<path d="M54.5969 59.4438C54.6365 59.6476 54.6811 59.7976 54.7305 59.8935C54.7802 59.9895 54.8295 60.0674 54.8792 60.1274C54.9286 60.1874 54.9732 60.2413 55.0128 60.2893C55.0524 60.3373 55.0823 60.4153 55.1021 60.5232H54.3146C54.2454 60.5232 54.181 60.4932 54.1216 60.4332C54.0719 60.3733 54.0423 60.3013 54.0323 60.2174C54.0423 60.3013 54.0276 60.3733 53.988 60.4332C53.9483 60.4932 53.8987 60.5232 53.8393 60.5232H53.0521C53.0323 60.4153 53.0373 60.3373 53.0669 60.2893C53.0967 60.2413 53.1263 60.1934 53.1561 60.1454C53.1857 60.0854 53.2105 60.0075 53.2303 59.9115C53.2501 59.8036 53.2451 59.6417 53.2156 59.4258V59.4078L52.8886 57.3749C52.8688 57.2549 52.8144 57.153 52.7252 57.069C52.6362 56.9731 52.5372 56.9251 52.4281 56.9251H51.4032C51.2942 56.9251 51.1952 56.9731 51.1062 57.069C51.0169 57.153 50.9625 57.2549 50.9427 57.3749L50.6308 59.4078V59.4258C50.601 59.6417 50.5912 59.8036 50.601 59.9115C50.6208 60.0075 50.6456 60.0854 50.6752 60.1454C50.7148 60.1934 50.7447 60.2413 50.7645 60.2893C50.794 60.3373 50.8041 60.4153 50.794 60.5232H50.0068C49.9375 60.5232 49.8831 60.4932 49.8434 60.4332C49.8038 60.3733 49.789 60.3013 49.7989 60.2174C49.789 60.3013 49.7593 60.3733 49.7097 60.4332C49.6602 60.4932 49.6008 60.5232 49.5315 60.5232H48.7442C48.7541 60.4153 48.7788 60.3373 48.8185 60.2893C48.8581 60.2413 48.9026 60.1874 48.9522 60.1274C49.0017 60.0674 49.0512 59.9895 49.1007 59.8935C49.1502 59.7976 49.1948 59.6476 49.2344 59.4438L49.9029 55.0721C49.9227 54.9042 49.9078 54.7482 49.8583 54.6043C49.8088 54.4604 49.7295 54.3465 49.6206 54.2625C49.7791 54.1786 49.9227 54.1366 50.0514 54.1366L50.8535 49.0093C50.8833 48.8054 50.8883 48.6555 50.8685 48.5595C50.8487 48.4516 50.8239 48.3736 50.794 48.3256C50.7645 48.2657 50.7346 48.2117 50.705 48.1638C50.6752 48.1158 50.6705 48.0378 50.6903 47.9299H51.6853C51.8339 47.9539 51.9081 48.0558 51.9081 48.2357C51.9081 48.1518 51.928 48.0858 51.9676 48.0378C52.0172 47.9778 52.0716 47.9419 52.131 47.9299H53.1411C53.1609 48.0378 53.1561 48.1158 53.1263 48.1638C53.1065 48.2117 53.0817 48.2657 53.0521 48.3256C53.0223 48.3736 52.9974 48.4516 52.9776 48.5595C52.9578 48.6555 52.9628 48.8054 52.9927 49.0093L53.7799 54.1366C53.8591 54.1366 53.9333 54.1486 54.0027 54.1726C54.0719 54.1966 54.1414 54.2265 54.2106 54.2625C53.9927 54.4304 53.8987 54.7003 53.9285 55.0721L54.5969 59.4438ZM51.0317 53.0032C51.0515 52.9312 51.0615 52.8653 51.0615 52.8053C51.0713 52.7333 51.0813 52.6674 51.0911 52.6074C51.1408 52.3315 51.1804 52.0737 51.2099 51.8338C51.2398 51.5819 51.2694 51.3541 51.2992 51.1502C51.319 51.0542 51.3288 50.9583 51.3288 50.8623C51.3388 50.7664 51.3486 50.6704 51.3586 50.5745C51.3684 50.4905 51.3784 50.4126 51.3882 50.3406C51.3982 50.2686 51.408 50.2027 51.418 50.1427C51.4278 50.0827 51.4328 50.0288 51.4328 49.9808C51.4328 49.9208 51.4378 49.8728 51.4476 49.8369V49.7649L51.4328 49.8369C51.4231 49.8728 51.413 49.9148 51.4032 49.9628C51.3932 50.0108 51.3834 50.0647 51.3734 50.1247C51.3536 50.1847 51.3388 50.2566 51.3288 50.3406C51.319 50.4126 51.3042 50.4845 51.2844 50.5565C51.2646 50.6524 51.2448 50.7484 51.225 50.8443C51.215 50.9403 51.2002 51.0362 51.1804 51.1322C51.1307 51.3361 51.0813 51.5579 51.0317 51.7978C50.9921 52.0257 50.9477 52.2776 50.8981 52.5534C50.8981 52.6254 50.8931 52.6913 50.8833 52.7513C50.8733 52.8113 50.8585 52.8773 50.8387 52.9492C50.8289 53.0212 50.8189 53.0931 50.8091 53.1651C50.7991 53.225 50.7893 53.291 50.7793 53.363C50.7497 53.4949 50.7198 53.6328 50.6903 53.7768C50.6705 53.9207 50.6506 54.0646 50.6308 54.2085C50.611 54.3405 50.5862 54.4784 50.5564 54.6223C50.5366 54.7662 50.5168 54.9042 50.497 55.0361C50.4872 55.0721 50.4822 55.1081 50.4822 55.144C50.4822 55.168 50.4772 55.198 50.4674 55.234C50.4476 55.3299 50.4375 55.4019 50.4375 55.4499C50.408 55.5698 50.3881 55.7018 50.3782 55.8457C50.3584 55.9776 50.3386 56.1095 50.3188 56.2415C50.299 56.3734 50.2841 56.4933 50.2742 56.6013C50.2445 56.8771 50.2148 57.105 50.1851 57.2849C50.1653 57.3809 50.1504 57.4768 50.1405 57.5728C50.1306 57.6687 50.1207 57.7647 50.1108 57.8606C50.091 57.9446 50.0762 58.0285 50.0663 58.1125C50.0663 58.1844 50.0613 58.2504 50.0514 58.3104C50.0415 58.3703 50.0366 58.4243 50.0366 58.4723C50.0366 58.5202 50.0316 58.5622 50.0217 58.5982C50.0217 58.6222 50.0168 58.6402 50.0068 58.6522C50.0068 58.6522 50.0068 58.6582 50.0068 58.6702V58.6882C50.0168 58.6882 50.0217 58.6822 50.0217 58.6702C50.0217 58.6462 50.0267 58.6222 50.0366 58.5982C50.0465 58.5742 50.0514 58.5382 50.0514 58.4903C50.0613 58.4303 50.0762 58.3703 50.096 58.3104C50.1158 58.2504 50.1306 58.1844 50.1405 58.1125C50.1603 58.0405 50.1801 57.9626 50.1999 57.8786C50.2197 57.7946 50.2346 57.7047 50.2445 57.6087C50.2643 57.5128 50.2792 57.4168 50.2891 57.3209C50.3089 57.2249 50.3287 57.123 50.3485 57.0151C50.3782 56.8951 50.403 56.7752 50.4228 56.6552C50.4426 56.5353 50.4624 56.4094 50.4822 56.2774C50.512 56.1455 50.5416 56.0136 50.5714 55.8816C50.5812 55.8217 50.5912 55.7617 50.601 55.7018C50.611 55.6298 50.6208 55.5638 50.6308 55.5039L50.6752 55.288C50.6852 55.252 50.6903 55.216 50.6903 55.18C50.6903 55.144 50.695 55.1081 50.705 55.0721C50.7249 54.9401 50.7497 54.8082 50.7793 54.6763C50.8091 54.5324 50.8336 54.3885 50.8535 54.2445C50.8733 54.1126 50.8931 53.9747 50.9129 53.8307C50.9327 53.6868 50.9525 53.5489 50.9723 53.4169C50.9823 53.345 50.9921 53.273 51.0021 53.2011C51.0119 53.1291 51.0219 53.0632 51.0317 53.0032ZM52.2945 56.0795C52.4033 56.0675 52.4875 56.0196 52.5469 55.9356C52.6164 55.8397 52.6409 55.7257 52.6211 55.5938L52.5321 55.0721C52.4925 54.9042 52.4231 54.7482 52.3241 54.6043C52.2351 54.4604 52.126 54.3465 51.9974 54.2625C52.1162 54.1786 52.2448 54.1366 52.3835 54.1366L51.9081 51.0602L51.4328 54.1366C51.5617 54.1366 51.6953 54.1786 51.8339 54.2625C51.6953 54.3465 51.5765 54.4604 51.4774 54.6043C51.3882 54.7482 51.3288 54.9042 51.2992 55.0721L51.225 55.5938C51.2052 55.7257 51.225 55.8397 51.2844 55.9356C51.3438 56.0196 51.423 56.0675 51.5221 56.0795H52.2945ZM53.7947 58.5982C53.7947 58.6222 53.7947 58.6402 53.7947 58.6522C53.8047 58.6522 53.8097 58.6582 53.8097 58.6702V58.5982C53.7997 58.5622 53.7947 58.5202 53.7947 58.4723C53.7947 58.4243 53.7899 58.3703 53.7799 58.3104C53.7701 58.2504 53.7601 58.1844 53.7503 58.1125C53.7503 58.0285 53.7403 57.9446 53.7204 57.8606C53.7107 57.7647 53.7006 57.6687 53.6909 57.5728C53.6808 57.4768 53.6661 57.3809 53.6462 57.2849C53.6164 57.105 53.5868 56.8771 53.557 56.6013C53.5372 56.4933 53.5174 56.3734 53.4976 56.2415C53.4878 56.1095 53.473 55.9776 53.4532 55.8457C53.4334 55.7737 53.4184 55.7078 53.4086 55.6478C53.4086 55.5878 53.3985 55.5219 53.3787 55.4499C53.3787 55.4019 53.369 55.3299 53.3492 55.234C53.3492 55.198 53.3442 55.168 53.3344 55.144C53.3344 55.1081 53.3344 55.0721 53.3344 55.0361C53.3146 54.9042 53.2898 54.7662 53.2599 54.6223C53.2401 54.4784 53.2203 54.3405 53.2005 54.2085C53.1807 54.0646 53.1561 53.9207 53.1263 53.7768C53.1065 53.6328 53.0817 53.4949 53.0521 53.363C53.0421 53.291 53.0323 53.225 53.0223 53.1651C53.0125 53.0931 53.0024 53.0212 52.9927 52.9492C52.9729 52.8773 52.9578 52.8113 52.948 52.7513C52.938 52.6913 52.9282 52.6254 52.9182 52.5534C52.8688 52.2776 52.8192 52.0257 52.7698 51.7978C52.7302 51.5579 52.6956 51.3361 52.6658 51.1322C52.646 51.0362 52.6261 50.9403 52.6063 50.8443C52.5865 50.7484 52.5667 50.6524 52.5469 50.5565C52.5271 50.4845 52.5073 50.4126 52.4875 50.3406C52.4777 50.2566 52.4627 50.1847 52.4429 50.1247C52.4331 50.0647 52.4231 50.0108 52.4133 49.9628C52.4033 49.9148 52.3935 49.8728 52.3835 49.8369L52.3687 49.7649V49.8369C52.3787 49.8968 52.3935 49.9988 52.4133 50.1427C52.4133 50.2027 52.4183 50.2686 52.4281 50.3406C52.4381 50.4126 52.4479 50.4905 52.4579 50.5745C52.4677 50.6704 52.4777 50.7664 52.4875 50.8623C52.4975 50.9583 52.5123 51.0542 52.5321 51.1502C52.5617 51.3541 52.5916 51.5819 52.6211 51.8338C52.651 52.0737 52.6856 52.3315 52.7252 52.6074C52.7352 52.6674 52.74 52.7333 52.74 52.8053C52.75 52.8653 52.7648 52.9312 52.7846 53.0032C52.7946 53.0632 52.8044 53.1291 52.8144 53.2011C52.8242 53.273 52.8342 53.345 52.844 53.4169C52.8638 53.5489 52.8836 53.6868 52.9034 53.8307C52.9333 53.9747 52.9578 54.1126 52.9776 54.2445C52.9974 54.3885 53.0223 54.5324 53.0521 54.6763C53.0817 54.8082 53.1065 54.9401 53.1263 55.0721C53.1363 55.1081 53.1411 55.144 53.1411 55.18C53.1411 55.216 53.1461 55.252 53.1561 55.288L53.2005 55.5039C53.2105 55.5638 53.2203 55.6298 53.2303 55.7018C53.2401 55.7617 53.2501 55.8217 53.2599 55.8816C53.2898 56.0136 53.3146 56.1455 53.3344 56.2774C53.3542 56.4094 53.374 56.5353 53.3938 56.6552C53.4136 56.7752 53.4334 56.8951 53.4532 57.0151C53.4828 57.123 53.5076 57.2249 53.5274 57.3209C53.5472 57.4168 53.567 57.5128 53.5868 57.6087C53.6066 57.7047 53.6264 57.7946 53.6462 57.8786C53.6758 58.0465 53.7057 58.1904 53.7352 58.3104C53.755 58.3703 53.7651 58.4303 53.7651 58.4903C53.7748 58.5382 53.7849 58.5742 53.7947 58.5982Z" fill="#F4EDE8"/>
<path d="M60.8295 61.2788C60.9385 61.3028 61.0127 61.3448 61.0523 61.4047C61.1017 61.4647 61.1366 61.5247 61.1564 61.5846C61.1762 61.6566 61.186 61.7346 61.186 61.8185C60.8691 61.8185 60.572 61.7705 60.2947 61.6746C60.0175 61.5786 59.7698 61.4227 59.5519 61.2068C59.3441 60.9909 59.1756 60.7091 59.047 60.3613C58.9282 60.0135 58.8688 59.5877 58.8688 59.084V56.6193C58.8688 56.4633 58.8637 56.2714 58.8537 56.0436C58.8439 55.8157 58.8093 55.5998 58.7499 55.3959C58.6905 55.192 58.5962 55.0181 58.4676 54.8742C58.3488 54.7183 58.1706 54.6403 57.9329 54.6403H57.3237C57.2347 54.6643 57.1555 54.7243 57.086 54.8202C57.0266 54.9042 56.997 55.0061 56.997 55.1261V59.4258C56.997 59.6417 57.0118 59.8036 57.0417 59.9115C57.0813 60.0075 57.1209 60.0854 57.1605 60.1454C57.2001 60.1934 57.2347 60.2413 57.2643 60.2893C57.3039 60.3373 57.3237 60.4153 57.3237 60.5232H56.5365C56.4771 60.5232 56.4227 60.4932 56.373 60.4332C56.3237 60.3733 56.2988 60.3073 56.2988 60.2353C56.2988 60.3073 56.274 60.3733 56.2246 60.4332C56.185 60.4932 56.1304 60.5232 56.0612 60.5232H55.2888C55.2888 60.4153 55.3036 60.3373 55.3331 60.2893C55.3728 60.2413 55.4126 60.1934 55.4522 60.1454C55.4918 60.0854 55.5264 60.0075 55.556 59.9115C55.5956 59.8156 55.6154 59.6656 55.6154 59.4617V55.0721C55.5859 54.7003 55.4472 54.4304 55.1995 54.2625C55.3086 54.1786 55.4472 54.1366 55.6154 54.1366V48.9913C55.6154 48.7874 55.5956 48.6375 55.556 48.5415C55.5264 48.4456 55.4918 48.3736 55.4522 48.3256C55.4126 48.2657 55.3728 48.2117 55.3331 48.1638C55.3036 48.1158 55.2888 48.0378 55.2888 47.9299H56.076C56.1354 47.9299 56.1898 47.9599 56.2394 48.0198C56.2888 48.0678 56.3136 48.1338 56.3136 48.2177C56.3136 48.0258 56.3929 47.9299 56.5513 47.9299H57.9477C58.2646 47.9299 58.5616 48.0018 58.8389 48.1458C59.1162 48.2897 59.3589 48.4876 59.567 48.7394C59.7748 48.9793 59.9382 49.2672 60.0571 49.603C60.1759 49.9388 60.2403 50.2926 60.2501 50.6644V51.8338C60.2501 52.3375 60.1511 52.7993 59.953 53.2191C59.755 53.6388 59.4877 53.9747 59.1508 54.2265C59.4877 54.4664 59.755 54.8022 59.953 55.234C60.1511 55.6538 60.2501 56.1155 60.2501 56.6193V59.012C60.2501 59.2639 60.2501 59.5217 60.2501 59.7856C60.2601 60.0374 60.2847 60.2713 60.3243 60.4872C60.3639 60.6911 60.4233 60.865 60.5026 61.0089C60.5818 61.1529 60.6908 61.2428 60.8295 61.2788ZM59.4777 51.528C59.4677 51.552 59.4629 51.5819 59.4629 51.6179V52.0317C59.4529 52.0797 59.4479 52.1276 59.4479 52.1756C59.4479 52.2116 59.4479 52.2476 59.4479 52.2836C59.4479 52.3075 59.4431 52.3255 59.4331 52.3375C59.4331 52.3495 59.4331 52.3675 59.4331 52.3915V52.4994C59.4233 52.5234 59.4183 52.5534 59.4183 52.5894C59.4183 52.6134 59.4133 52.6374 59.4035 52.6614C59.4035 52.6853 59.3985 52.7033 59.3884 52.7153V52.7513L59.3737 52.7873C59.3737 52.7873 59.3837 52.7813 59.4035 52.7693V52.7513L59.4183 52.7333C59.4281 52.7213 59.4331 52.7153 59.4331 52.7153C59.4331 52.7033 59.4381 52.6913 59.4479 52.6794C59.4579 52.6554 59.4677 52.6314 59.4777 52.6074C59.4875 52.5714 59.4975 52.5414 59.5075 52.5174C59.5173 52.4934 59.5223 52.4815 59.5223 52.4815C59.5223 52.4695 59.5271 52.4515 59.5371 52.4275C59.5472 52.4035 59.5519 52.3855 59.5519 52.3735C59.5519 52.3495 59.5569 52.3255 59.567 52.3015C59.5767 52.2776 59.5817 52.2596 59.5817 52.2476C59.5817 52.2356 59.5868 52.2176 59.5965 52.1936C59.5965 52.1696 59.5965 52.1516 59.5965 52.1397C59.6066 52.1156 59.6113 52.0917 59.6113 52.0677C59.6214 52.0197 59.6264 51.9717 59.6264 51.9238C59.6361 51.8758 59.6462 51.8278 59.6559 51.7798C59.666 51.7439 59.6707 51.6899 59.6707 51.6179C59.6707 51.5939 59.6707 51.5699 59.6707 51.546C59.6808 51.522 59.6858 51.498 59.6858 51.474V50.8443C59.6858 50.7723 59.6808 50.7184 59.6707 50.6824V50.6105C59.6707 50.5865 59.666 50.5745 59.6559 50.5745C59.6559 50.5625 59.6559 50.5445 59.6559 50.5205C59.6559 50.4605 59.6462 50.3706 59.6264 50.2506C59.6163 50.2267 59.6113 50.2027 59.6113 50.1787C59.6113 50.1547 59.6066 50.1307 59.5965 50.1067C59.5965 50.0947 59.5915 50.0887 59.5817 50.0887C59.5817 50.0767 59.5817 50.0647 59.5817 50.0527C59.5817 50.0407 59.5767 50.0348 59.567 50.0348C59.567 50.0228 59.567 50.0108 59.567 49.9988C59.5569 49.9748 59.5519 49.9568 59.5519 49.9448C59.5519 49.9328 59.5472 49.9148 59.5371 49.8908C59.5271 49.8668 59.5223 49.8488 59.5223 49.8369C59.5223 49.8249 59.5173 49.8069 59.5075 49.7829C59.4975 49.7709 59.4925 49.7589 59.4925 49.7469C59.4925 49.7349 59.4875 49.7229 59.4777 49.7109C59.4579 49.6629 59.4479 49.639 59.4479 49.639C59.4381 49.627 59.4331 49.621 59.4331 49.621C59.4331 49.609 59.4281 49.597 59.4183 49.585C59.4083 49.573 59.4035 49.561 59.4035 49.549C59.3935 49.537 59.3884 49.525 59.3884 49.513H59.3737C59.3737 49.513 59.3787 49.525 59.3884 49.549V49.585C59.3985 49.597 59.4035 49.621 59.4035 49.6569C59.4035 49.6689 59.4035 49.6809 59.4035 49.6929C59.4133 49.6929 59.4183 49.7049 59.4183 49.7289C59.4183 49.7649 59.4233 49.7949 59.4331 49.8189V49.9088C59.4331 49.9328 59.4331 49.9508 59.4331 49.9628C59.4431 49.9748 59.4479 49.9928 59.4479 50.0168C59.4479 50.1247 59.4529 50.2087 59.4629 50.2686V50.5565C59.4727 50.6165 59.4777 50.7124 59.4777 50.8443V51.528ZM56.4177 53.381C56.4177 53.321 56.4127 53.2551 56.4029 53.1831C56.4029 53.1111 56.4029 53.0392 56.4029 52.9672V52.5714C56.3929 52.3075 56.3878 52.0557 56.3878 51.8158C56.3878 51.5759 56.3831 51.3481 56.373 51.1322C56.3633 51.0362 56.3583 50.9403 56.3583 50.8443C56.3583 50.7484 56.3532 50.6584 56.3435 50.5745C56.3435 50.4785 56.3385 50.3946 56.3284 50.3226C56.3284 50.2506 56.3284 50.1847 56.3284 50.1247C56.3284 50.0647 56.3237 50.0108 56.3136 49.9628C56.3136 49.9148 56.3136 49.8728 56.3136 49.8369V49.7469C56.3039 49.7469 56.2988 49.7529 56.2988 49.7649V49.8369C56.2988 49.8728 56.2938 49.9148 56.2841 49.9628C56.2841 50.0108 56.2841 50.0647 56.2841 50.1247C56.2841 50.1847 56.279 50.2506 56.269 50.3226C56.269 50.3946 56.269 50.4785 56.269 50.5745C56.2592 50.6584 56.2542 50.7484 56.2542 50.8443C56.2542 50.9403 56.2492 51.0362 56.2394 51.1322C56.2294 51.3481 56.2246 51.5759 56.2246 51.8158C56.2246 52.0557 56.2196 52.3075 56.2096 52.5714V52.9672C56.2096 53.0392 56.2048 53.1111 56.1948 53.1831C56.1948 53.2551 56.1948 53.321 56.1948 53.381V55.0541C56.1948 55.15 56.1998 55.222 56.2096 55.27V55.8637C56.2096 55.9956 56.2096 56.1275 56.2096 56.2595C56.2196 56.3794 56.2246 56.4993 56.2246 56.6193C56.2246 56.7512 56.2246 56.8711 56.2246 56.9791C56.2344 57.087 56.2394 57.1949 56.2394 57.3029C56.2492 57.4108 56.2542 57.5128 56.2542 57.6087C56.2542 57.6927 56.2592 57.7826 56.269 57.8786C56.269 57.9626 56.269 58.0405 56.269 58.1125C56.279 58.1844 56.2841 58.2504 56.2841 58.3104C56.2841 58.3703 56.2841 58.4303 56.2841 58.4903C56.2938 58.5382 56.2988 58.5742 56.2988 58.5982V58.6882C56.2988 58.7002 56.3039 58.7062 56.3136 58.7062V58.5982C56.3136 58.5742 56.3136 58.5382 56.3136 58.4903C56.3237 58.4303 56.3284 58.3703 56.3284 58.3104C56.3284 58.2504 56.3284 58.1844 56.3284 58.1125C56.3385 58.0405 56.3435 57.9626 56.3435 57.8786C56.3532 57.7826 56.3583 57.6927 56.3583 57.6087C56.3583 57.5128 56.3633 57.4108 56.373 57.3029C56.373 57.1949 56.373 57.087 56.373 56.9791C56.3831 56.8711 56.3878 56.7512 56.3878 56.6193C56.3878 56.4993 56.3878 56.3794 56.3878 56.2595C56.3979 56.1275 56.4029 55.9956 56.4029 55.8637V55.4679C56.4029 55.3719 56.4076 55.306 56.4177 55.27V53.381ZM58.8688 50.7364C58.8688 50.5805 58.8637 50.3886 58.8537 50.1607C58.8439 49.9328 58.8093 49.7169 58.7499 49.513C58.6905 49.3091 58.5962 49.1352 58.4676 48.9913C58.3488 48.8354 58.1706 48.7574 57.9329 48.7574H57.3982C57.2891 48.7694 57.1951 48.8234 57.1159 48.9193C57.0367 49.0153 56.997 49.1292 56.997 49.2612V53.309C56.997 53.4409 57.0367 53.5549 57.1159 53.6508C57.1951 53.7468 57.2891 53.7948 57.3982 53.7948H57.9329C58.1706 53.7948 58.3488 53.7228 58.4676 53.5789C58.5962 53.4349 58.6905 53.2611 58.7499 53.0572C58.8093 52.8413 58.8439 52.6254 58.8537 52.4095C58.8637 52.1816 58.8688 51.9897 58.8688 51.8338V50.7364ZM59.864 60.5952C59.864 60.5952 59.859 60.5892 59.849 60.5772L59.8342 60.5592C59.8244 60.5352 59.8144 60.5112 59.8046 60.4872C59.8046 60.4632 59.7946 60.4392 59.7748 60.4153C59.765 60.3793 59.755 60.3433 59.7452 60.3073C59.7352 60.2593 59.7254 60.2054 59.7154 60.1454C59.6956 60.0255 59.6858 59.9115 59.6858 59.8036C59.6758 59.7436 59.6707 59.6836 59.6707 59.6237C59.6707 59.5517 59.6707 59.4738 59.6707 59.3898V58.4363C59.6707 58.3524 59.6707 58.2684 59.6707 58.1844C59.6707 58.1005 59.6758 58.0105 59.6858 57.9146C59.6858 57.8306 59.6858 57.7467 59.6858 57.6627C59.6858 57.5788 59.6808 57.4948 59.6707 57.4108V57.159C59.6707 57.0391 59.666 56.9551 59.6559 56.9071C59.6559 56.8232 59.6509 56.7452 59.6412 56.6732C59.6412 56.5893 59.6361 56.5113 59.6264 56.4394C59.6066 56.2714 59.5868 56.1275 59.567 56.0076C59.5569 55.9476 59.5472 55.8936 59.5371 55.8457C59.5271 55.7857 59.5123 55.7257 59.4925 55.6658C59.4727 55.6058 59.4579 55.5578 59.4479 55.5219C59.4381 55.4859 59.4233 55.4499 59.4035 55.4139C59.3837 55.3779 59.3686 55.3479 59.3589 55.324C59.3488 55.3 59.3391 55.276 59.329 55.252C59.3193 55.252 59.3092 55.246 59.2995 55.234C59.2894 55.234 59.2847 55.228 59.2847 55.216L59.2995 55.234C59.2995 55.246 59.3045 55.258 59.3142 55.27C59.3142 55.282 59.3142 55.294 59.3142 55.306C59.3243 55.306 59.329 55.318 59.329 55.3419C59.3391 55.3539 59.3441 55.3659 59.3441 55.3779C59.3441 55.3899 59.3488 55.4079 59.3589 55.4319C59.3686 55.4799 59.3837 55.5638 59.4035 55.6838C59.4133 55.7437 59.4183 55.8037 59.4183 55.8637C59.4281 55.9236 59.4381 55.9836 59.4479 56.0436C59.4479 56.1035 59.4479 56.1695 59.4479 56.2415C59.4579 56.3014 59.4629 56.3734 59.4629 56.4573V58.6882C59.4629 58.7361 59.4629 58.7781 59.4629 58.8141C59.4727 58.8501 59.4777 58.8921 59.4777 58.94C59.4777 59.024 59.4777 59.1079 59.4777 59.1919C59.4875 59.2639 59.4975 59.3358 59.5075 59.4078C59.5173 59.4798 59.5223 59.5517 59.5223 59.6237C59.5321 59.6956 59.5421 59.7616 59.5519 59.8216C59.5717 59.8935 59.5868 59.9595 59.5965 60.0195C59.6066 60.0674 59.6214 60.1214 59.6412 60.1814C59.661 60.2413 59.6758 60.2893 59.6858 60.3253C59.6956 60.3613 59.7103 60.3973 59.7302 60.4332L59.76 60.4692C59.7698 60.4812 59.7748 60.4932 59.7748 60.5052C59.7748 60.5052 59.7798 60.5112 59.7896 60.5232L59.849 60.5952H59.864Z" fill="#F4EDE8"/>
<path d="M65.2835 51.8338C65.2835 52.3375 65.1845 52.7993 64.9864 53.2191C64.7884 53.6388 64.5209 53.9747 64.1842 54.2265C64.5209 54.4664 64.7884 54.8022 64.9864 55.234C65.1845 55.6538 65.2835 56.1155 65.2835 56.6193V57.7886C65.2737 58.1725 65.2093 58.5322 65.0905 58.8681C64.9716 59.1919 64.8082 59.4798 64.6001 59.7316C64.3923 59.9715 64.1496 60.1634 63.8723 60.3073C63.595 60.4512 63.298 60.5232 62.9811 60.5232H61.5699C61.5105 60.5232 61.4561 60.4932 61.4064 60.4332C61.3571 60.3733 61.3322 60.3073 61.3322 60.2353C61.3322 60.3073 61.3074 60.3733 61.258 60.4332C61.2184 60.4932 61.1638 60.5232 61.0946 60.5232H60.3222C60.3222 60.4153 60.337 60.3373 60.3665 60.2893C60.4061 60.2413 60.4457 60.1934 60.4854 60.1454C60.525 60.0854 60.5598 60.0075 60.5894 59.9115C60.629 59.8156 60.6488 59.6656 60.6488 59.4618V55.0721C60.6192 54.7003 60.4806 54.4304 60.2329 54.2625C60.342 54.1786 60.4806 54.1366 60.6488 54.1366V48.9913C60.6488 48.7874 60.629 48.6375 60.5894 48.5415C60.5598 48.4456 60.525 48.3736 60.4854 48.3256C60.4457 48.2657 60.4061 48.2117 60.3665 48.1638C60.337 48.1158 60.3222 48.0378 60.3222 47.9299H61.1094C61.1688 47.9299 61.2232 47.9599 61.2728 48.0198C61.3222 48.0678 61.347 48.1338 61.347 48.2177C61.347 48.0258 61.4262 47.9299 61.5847 47.9299H62.9811C63.298 47.9299 63.595 48.0018 63.8723 48.1458C64.1496 48.2897 64.3923 48.4876 64.6001 48.7394C64.8082 48.9793 64.9716 49.2672 65.0905 49.603C65.2093 49.9388 65.2737 50.2926 65.2835 50.6644V51.8338ZM61.4511 53.381C61.4511 53.321 61.446 53.2551 61.4363 53.1831C61.4363 53.1111 61.4363 53.0392 61.4363 52.9672V52.5714C61.4262 52.3075 61.4212 52.0557 61.4212 51.8158C61.4212 51.5759 61.4165 51.3481 61.4064 51.1322C61.3967 51.0362 61.3916 50.9403 61.3916 50.8443C61.3916 50.7484 61.3866 50.6584 61.3769 50.5745C61.3769 50.4785 61.3718 50.3946 61.3618 50.3226C61.3618 50.2506 61.3618 50.1847 61.3618 50.1247C61.3618 50.0647 61.3571 50.0108 61.347 49.9628C61.347 49.9148 61.347 49.8728 61.347 49.8369V49.7469C61.3372 49.7469 61.3322 49.7529 61.3322 49.7649V49.8369C61.3322 49.8728 61.3272 49.9148 61.3174 49.9628C61.3174 50.0108 61.3174 50.0647 61.3174 50.1247C61.3174 50.1847 61.3124 50.2506 61.3024 50.3226C61.3024 50.3946 61.3024 50.4785 61.3024 50.5745C61.2926 50.6584 61.2876 50.7484 61.2876 50.8443C61.2876 50.9403 61.2826 51.0362 61.2728 51.1322C61.2628 51.3481 61.258 51.5759 61.258 51.8158C61.258 52.0557 61.253 52.3075 61.243 52.5714V52.9672C61.243 53.0392 61.2382 53.1111 61.2282 53.1831C61.2282 53.2551 61.2282 53.321 61.2282 53.381V55.0541C61.2282 55.15 61.2332 55.222 61.243 55.27V55.8637C61.243 55.9956 61.243 56.1275 61.243 56.2595C61.253 56.3794 61.258 56.4993 61.258 56.6193C61.258 56.7512 61.258 56.8711 61.258 56.9791C61.2678 57.087 61.2728 57.1949 61.2728 57.3029C61.2826 57.4108 61.2876 57.5128 61.2876 57.6087C61.2876 57.6927 61.2926 57.7826 61.3024 57.8786C61.3024 57.9626 61.3024 58.0405 61.3024 58.1125C61.3124 58.1844 61.3174 58.2504 61.3174 58.3104C61.3174 58.3703 61.3174 58.4303 61.3174 58.4903C61.3272 58.5382 61.3322 58.5742 61.3322 58.5982V58.6882C61.3322 58.7002 61.3372 58.7062 61.347 58.7062V58.5982C61.347 58.5742 61.347 58.5382 61.347 58.4903C61.3571 58.4303 61.3618 58.3703 61.3618 58.3104C61.3618 58.2504 61.3618 58.1844 61.3618 58.1125C61.3718 58.0405 61.3769 57.9626 61.3769 57.8786C61.3866 57.7826 61.3916 57.6927 61.3916 57.6087C61.3916 57.5128 61.3967 57.4108 61.4064 57.3029C61.4064 57.1949 61.4064 57.087 61.4064 56.9791C61.4165 56.8711 61.4212 56.7512 61.4212 56.6193C61.4212 56.4993 61.4212 56.3794 61.4212 56.2595C61.4313 56.1275 61.4363 55.9956 61.4363 55.8637V55.4679C61.4363 55.3719 61.441 55.306 61.4511 55.27V53.381ZM64.5111 57.5548C64.5011 57.5788 64.4963 57.6087 64.4963 57.6447V58.0585C64.4863 58.1065 64.4813 58.1545 64.4813 58.2024C64.4813 58.2384 64.4813 58.2744 64.4813 58.3104C64.4813 58.3343 64.4765 58.3524 64.4665 58.3644C64.4665 58.3763 64.4665 58.3943 64.4665 58.4183V58.5262C64.4567 58.5502 64.4517 58.5802 64.4517 58.6162C64.4517 58.6402 64.4467 58.6642 64.4369 58.6882C64.4369 58.7121 64.4319 58.7301 64.4218 58.7421V58.7781L64.4071 58.8141C64.4071 58.8141 64.4171 58.8081 64.4369 58.7961V58.7781L64.4517 58.7601C64.4615 58.7481 64.4665 58.7421 64.4665 58.7421C64.4665 58.7301 64.4715 58.7181 64.4813 58.7062C64.4913 58.6822 64.5011 58.6582 64.5111 58.6342C64.5209 58.5982 64.5309 58.5682 64.5407 58.5442C64.5507 58.5202 64.5557 58.5083 64.5557 58.5083C64.5557 58.4963 64.5605 58.4783 64.5705 58.4543C64.5803 58.4303 64.5853 58.4123 64.5853 58.4003C64.5853 58.3883 64.5903 58.3703 64.6001 58.3463C64.6101 58.3223 64.6151 58.3044 64.6151 58.2924C64.6151 58.2684 64.6199 58.2444 64.6299 58.2204C64.6299 58.1964 64.6299 58.1784 64.6299 58.1665C64.6397 58.1425 64.6447 58.1185 64.6447 58.0945C64.6548 58.0465 64.6595 57.9985 64.6595 57.9506C64.6695 57.9026 64.6793 57.8546 64.6893 57.8066C64.6991 57.7707 64.7041 57.7167 64.7041 57.6447C64.7041 57.6207 64.7041 57.5967 64.7041 57.5728C64.7142 57.5488 64.7189 57.5248 64.7189 57.5008V56.8711C64.7189 56.7992 64.7142 56.7452 64.7041 56.7092V56.6373C64.7041 56.6133 64.6991 56.6013 64.6893 56.6013C64.6893 56.5893 64.6893 56.5773 64.6893 56.5653C64.6893 56.5053 64.6843 56.4573 64.6746 56.4214C64.6746 56.3734 64.6695 56.3254 64.6595 56.2774C64.6497 56.2535 64.6447 56.2295 64.6447 56.2055C64.6447 56.1815 64.6397 56.1575 64.6299 56.1335C64.6299 56.1215 64.6249 56.1155 64.6151 56.1155C64.6151 56.1035 64.6151 56.0915 64.6151 56.0795C64.6151 56.0675 64.6101 56.0616 64.6001 56.0616C64.6001 56.0496 64.6001 56.0376 64.6001 56.0256C64.5903 56.0016 64.5853 55.9836 64.5853 55.9716C64.5853 55.9596 64.5803 55.9416 64.5705 55.9176C64.5605 55.8936 64.5557 55.8756 64.5557 55.8637C64.5557 55.8517 64.5507 55.8337 64.5407 55.8097C64.5309 55.7977 64.5259 55.7857 64.5259 55.7737C64.5259 55.7617 64.5209 55.7497 64.5111 55.7377C64.4913 55.6898 64.4813 55.6658 64.4813 55.6658C64.4715 55.6538 64.4665 55.6478 64.4665 55.6478C64.4665 55.6358 64.4615 55.6238 64.4517 55.6118C64.4416 55.5998 64.4369 55.5878 64.4369 55.5758L64.4071 55.5398C64.4071 55.5398 64.4121 55.5518 64.4218 55.5758V55.6118C64.4319 55.6238 64.4369 55.6478 64.4369 55.6838C64.4369 55.6958 64.4369 55.7078 64.4369 55.7198C64.4467 55.7198 64.4517 55.7317 64.4517 55.7557C64.4517 55.7917 64.4567 55.8217 64.4665 55.8457V55.9356C64.4665 55.9596 64.4665 55.9776 64.4665 55.9896C64.4765 56.0016 64.4813 56.0196 64.4813 56.0436C64.4813 56.1515 64.4863 56.2355 64.4963 56.2954V56.5833C64.5061 56.6433 64.5111 56.7392 64.5111 56.8711V57.5548ZM63.9021 56.6193C63.9021 56.4633 63.8971 56.2714 63.8871 56.0436C63.8773 55.8157 63.8427 55.5998 63.7831 55.3959C63.7236 55.192 63.6296 55.0181 63.501 54.8742C63.3822 54.7183 63.204 54.6403 62.9663 54.6403H62.4313C62.3225 54.6523 62.2285 54.7063 62.1493 54.8022C62.07 54.8982 62.0304 55.0121 62.0304 55.144V59.1919C62.0304 59.3238 62.07 59.4378 62.1493 59.5337C62.2285 59.6297 62.3225 59.6777 62.4313 59.6777H62.9663C63.204 59.6777 63.3822 59.6057 63.501 59.4618C63.6296 59.3178 63.7236 59.1439 63.7831 58.94C63.8427 58.7241 63.8773 58.5083 63.8871 58.2924C63.8971 58.0645 63.9021 57.8726 63.9021 57.7167V56.6193ZM63.9021 50.7364C63.9021 50.5805 63.8971 50.3886 63.8871 50.1607C63.8773 49.9328 63.8427 49.7169 63.7831 49.513C63.7236 49.3091 63.6296 49.1352 63.501 48.9913C63.3822 48.8354 63.204 48.7574 62.9663 48.7574H62.4313C62.3225 48.7694 62.2285 48.8234 62.1493 48.9193C62.07 49.0153 62.0304 49.1292 62.0304 49.2612V53.309C62.0304 53.4409 62.07 53.5549 62.1493 53.6508C62.2285 53.7468 62.3225 53.7948 62.4313 53.7948H62.9663C63.204 53.7948 63.3822 53.7228 63.501 53.5789C63.6296 53.4349 63.7236 53.2611 63.7831 53.0572C63.8427 52.8413 63.8773 52.6254 63.8871 52.4095C63.8971 52.1816 63.9021 51.9897 63.9021 51.8338V50.7364ZM64.5407 52.5174C64.5507 52.4934 64.5557 52.4815 64.5557 52.4815C64.5557 52.4695 64.5605 52.4515 64.5705 52.4275C64.5803 52.4035 64.5853 52.3855 64.5853 52.3735C64.5853 52.3495 64.5903 52.3255 64.6001 52.3015C64.6101 52.2776 64.6151 52.2596 64.6151 52.2476C64.6151 52.2356 64.6199 52.2176 64.6299 52.1936C64.6299 52.1696 64.6299 52.1516 64.6299 52.1397C64.6397 52.1156 64.6447 52.0917 64.6447 52.0677C64.6548 52.0197 64.6595 51.9717 64.6595 51.9238C64.6695 51.8758 64.6793 51.8278 64.6893 51.7798C64.6991 51.7439 64.7041 51.6899 64.7041 51.6179C64.7041 51.5939 64.7041 51.5699 64.7041 51.546C64.7142 51.522 64.7189 51.498 64.7189 51.474V50.8443C64.7189 50.7723 64.7142 50.7184 64.7041 50.6824V50.6105C64.7041 50.5865 64.6991 50.5745 64.6893 50.5745C64.6893 50.5625 64.6893 50.5445 64.6893 50.5205C64.6893 50.4605 64.6793 50.3706 64.6595 50.2506C64.6497 50.2267 64.6447 50.2027 64.6447 50.1787C64.6447 50.1547 64.6397 50.1307 64.6299 50.1067C64.6299 50.0947 64.6249 50.0887 64.6151 50.0887C64.6151 50.0767 64.6151 50.0647 64.6151 50.0527C64.6151 50.0407 64.6101 50.0348 64.6001 50.0348C64.6001 50.0228 64.6001 50.0108 64.6001 49.9988C64.5903 49.9748 64.5853 49.9568 64.5853 49.9448C64.5853 49.9328 64.5803 49.9148 64.5705 49.8908C64.5605 49.8668 64.5557 49.8488 64.5557 49.8369C64.5557 49.8249 64.5507 49.8069 64.5407 49.7829C64.5309 49.7709 64.5259 49.7589 64.5259 49.7469C64.5259 49.7349 64.5209 49.7229 64.5111 49.7109C64.4913 49.6629 64.4813 49.639 64.4813 49.639C64.4715 49.627 64.4665 49.621 64.4665 49.621C64.4665 49.609 64.4615 49.597 64.4517 49.585C64.4416 49.573 64.4369 49.561 64.4369 49.549C64.4269 49.537 64.4218 49.525 64.4218 49.513H64.4071C64.4071 49.513 64.4121 49.525 64.4218 49.549V49.585C64.4319 49.597 64.4369 49.621 64.4369 49.6569C64.4369 49.6689 64.4369 49.6809 64.4369 49.6929C64.4467 49.6929 64.4517 49.7049 64.4517 49.7289C64.4517 49.7649 64.4567 49.7949 64.4665 49.8189V49.9088C64.4665 49.9328 64.4665 49.9508 64.4665 49.9628C64.4765 49.9748 64.4813 49.9928 64.4813 50.0168C64.4813 50.1247 64.4863 50.2087 64.4963 50.2686V50.5565C64.5061 50.6165 64.5111 50.7124 64.5111 50.8443V51.528C64.5011 51.552 64.4963 51.5819 64.4963 51.6179V52.0317C64.4863 52.0797 64.4813 52.1277 64.4813 52.1756C64.4813 52.2116 64.4813 52.2476 64.4813 52.2836C64.4813 52.3075 64.4765 52.3255 64.4665 52.3375C64.4665 52.3495 64.4665 52.3675 64.4665 52.3915V52.4994C64.4567 52.5234 64.4517 52.5534 64.4517 52.5894C64.4517 52.6134 64.4467 52.6374 64.4369 52.6614C64.4369 52.6853 64.4319 52.7033 64.4218 52.7153V52.7513L64.4071 52.7873C64.4071 52.7873 64.4171 52.7813 64.4369 52.7693V52.7513L64.4517 52.7333C64.4615 52.7213 64.4665 52.7153 64.4665 52.7153C64.4665 52.7033 64.4715 52.6913 64.4813 52.6794C64.4913 52.6554 64.5011 52.6314 64.5111 52.6074C64.5209 52.5714 64.5309 52.5414 64.5407 52.5174Z" fill="#F4EDE8"/>
<path d="M70.3465 59.4258C70.3465 59.6417 70.3616 59.8036 70.3912 59.9115C70.4308 60.0075 70.4704 60.0854 70.51 60.1454C70.5496 60.1934 70.5842 60.2413 70.614 60.2893C70.6537 60.3373 70.6735 60.4153 70.6735 60.5232H66.6329C66.5735 60.5232 66.5191 60.4932 66.4695 60.4332C66.4201 60.3733 66.3953 60.3073 66.3953 60.2353C66.3953 60.3073 66.3705 60.3733 66.3211 60.4332C66.2815 60.4932 66.2271 60.5232 66.1576 60.5232H65.3852C65.3852 60.4153 65.4 60.3373 65.4298 60.2893C65.4695 60.2413 65.5091 60.1934 65.5487 60.1454C65.5883 60.0854 65.6229 60.0075 65.6527 59.9115C65.6923 59.8156 65.7121 59.6656 65.7121 59.4618V55.0721C65.6823 54.7003 65.5437 54.4304 65.296 54.2625C65.405 54.1786 65.5437 54.1366 65.7121 54.1366V48.9913C65.7121 48.7874 65.6923 48.6375 65.6527 48.5415C65.6229 48.4456 65.5883 48.3736 65.5487 48.3256C65.5091 48.2657 65.4695 48.2117 65.4298 48.1638C65.4 48.1158 65.3852 48.0378 65.3852 47.9299H66.1724C66.2318 47.9299 66.2865 47.9599 66.3359 48.0198C66.3855 48.0678 66.4101 48.1338 66.4101 48.2177C66.4101 48.0258 66.4893 47.9299 66.6477 47.9299H70.6735C70.6735 48.0378 70.6537 48.1158 70.614 48.1638C70.5842 48.2117 70.5496 48.2657 70.51 48.3256C70.4704 48.3736 70.4308 48.4516 70.3912 48.5595C70.3616 48.6555 70.3465 48.8114 70.3465 49.0273V51.42C70.0001 51.42 69.7326 51.3421 69.5446 51.1861C69.3663 51.0182 69.2324 50.8323 69.1434 50.6284C69.0344 50.4006 68.975 50.1307 68.9652 49.8189V49.2612C68.9652 49.1292 68.9256 49.0153 68.8464 48.9193C68.7671 48.8234 68.6731 48.7694 68.5641 48.7574H67.4946C67.3855 48.7694 67.2915 48.8234 67.2123 48.9193C67.1331 49.0153 67.0935 49.1292 67.0935 49.2612V53.309C67.0935 53.4409 67.1331 53.5549 67.2123 53.6508C67.2915 53.7468 67.3855 53.7948 67.4946 53.7948H67.5986C67.7074 53.7948 67.7967 53.7468 67.8659 53.6508C67.9451 53.5549 67.9847 53.4409 67.9847 53.309V53.291C67.9947 53.1111 68.0344 52.9552 68.1035 52.8233C68.163 52.7033 68.2522 52.5954 68.371 52.4994C68.4899 52.4035 68.6631 52.3555 68.891 52.3555V56.0795C68.6631 56.0795 68.4899 56.0316 68.371 55.9356C68.2522 55.8397 68.163 55.7317 68.1035 55.6118C68.0344 55.4799 67.9947 55.324 67.9847 55.144C67.9847 55.0121 67.9451 54.8982 67.8659 54.8022C67.7967 54.7063 67.7074 54.6523 67.5986 54.6403H67.4946C67.3855 54.6523 67.2915 54.7063 67.2123 54.8022C67.1331 54.8982 67.0935 55.0121 67.0935 55.144V59.1919C67.0935 59.3238 67.1331 59.4378 67.2123 59.5337C67.2915 59.6297 67.3855 59.6777 67.4946 59.6777H68.5641C68.6731 59.6777 68.7671 59.6297 68.8464 59.5337C68.9256 59.4378 68.9652 59.3238 68.9652 59.1919V58.6162C68.975 58.3164 69.0344 58.0525 69.1434 57.8246C69.2324 57.6207 69.3663 57.4348 69.5446 57.2669C69.7326 57.099 70.0001 57.0151 70.3465 57.0151V59.4258ZM66.5141 53.381C66.5141 53.321 66.5091 53.2551 66.4993 53.1831C66.4993 53.1111 66.4993 53.0392 66.4993 52.9672V52.5714C66.4893 52.3075 66.4845 52.0557 66.4845 51.8158C66.4845 51.5759 66.4795 51.3481 66.4695 51.1322C66.4597 51.0362 66.4547 50.9403 66.4547 50.8443C66.4547 50.7484 66.4497 50.6584 66.4399 50.5745C66.4399 50.4785 66.4349 50.3946 66.4251 50.3226C66.4251 50.2506 66.4251 50.1847 66.4251 50.1247C66.4251 50.0647 66.4201 50.0108 66.4101 49.9628C66.4101 49.9148 66.4101 49.8728 66.4101 49.8369V49.7469C66.4003 49.7469 66.3953 49.7529 66.3953 49.7649V49.8369C66.3953 49.8728 66.3903 49.9148 66.3805 49.9628C66.3805 50.0108 66.3805 50.0647 66.3805 50.1247C66.3805 50.1847 66.3755 50.2506 66.3657 50.3226C66.3657 50.3946 66.3657 50.4785 66.3657 50.5745C66.3557 50.6584 66.3507 50.7484 66.3507 50.8443C66.3507 50.9403 66.3459 51.0362 66.3359 51.1322C66.3261 51.3481 66.3211 51.5759 66.3211 51.8158C66.3211 52.0557 66.3161 52.3075 66.3063 52.5714V52.9672C66.3063 53.0392 66.3013 53.1111 66.2912 53.1831C66.2912 53.2551 66.2912 53.321 66.2912 53.381V55.0541C66.2912 55.15 66.2963 55.222 66.3063 55.27V55.8637C66.3063 55.9956 66.3063 56.1275 66.3063 56.2595C66.3161 56.3794 66.3211 56.4993 66.3211 56.6193C66.3211 56.7512 66.3211 56.8711 66.3211 56.9791C66.3308 57.087 66.3359 57.1949 66.3359 57.3029C66.3459 57.4108 66.3507 57.5128 66.3507 57.6087C66.3507 57.6927 66.3557 57.7826 66.3657 57.8786C66.3657 57.9626 66.3657 58.0405 66.3657 58.1125C66.3755 58.1844 66.3805 58.2504 66.3805 58.3104C66.3805 58.3703 66.3805 58.4303 66.3805 58.4903C66.3903 58.5382 66.3953 58.5742 66.3953 58.5982V58.6882C66.3953 58.7002 66.4003 58.7062 66.4101 58.7062V58.5982C66.4101 58.5742 66.4101 58.5382 66.4101 58.4903C66.4201 58.4303 66.4251 58.3703 66.4251 58.3104C66.4251 58.2504 66.4251 58.1844 66.4251 58.1125C66.4349 58.0405 66.4399 57.9626 66.4399 57.8786C66.4497 57.7826 66.4547 57.6927 66.4547 57.6087C66.4547 57.5128 66.4597 57.4108 66.4695 57.3029C66.4695 57.1949 66.4695 57.087 66.4695 56.9791C66.4795 56.8711 66.4845 56.7512 66.4845 56.6193C66.4845 56.4993 66.4845 56.3794 66.4845 56.2595C66.4943 56.1275 66.4993 55.9956 66.4993 55.8637V55.4679C66.4993 55.3719 66.5043 55.306 66.5141 55.27V53.381Z" fill="#F4EDE8"/>
<path d="M76.3224 61.2788C76.4312 61.3028 76.5057 61.3448 76.5453 61.4047C76.5947 61.4647 76.6293 61.5247 76.6491 61.5846C76.6689 61.6566 76.6789 61.7346 76.6789 61.8185C76.362 61.8185 76.0649 61.7705 75.7877 61.6746C75.5104 61.5786 75.2627 61.4227 75.0448 61.2068C74.837 60.9909 74.6685 60.7091 74.5397 60.3613C74.4208 60.0135 74.3614 59.5877 74.3614 59.084V56.6193C74.3614 56.4633 74.3567 56.2714 74.3466 56.0436C74.3369 55.8157 74.302 55.5998 74.2426 55.3959C74.1832 55.192 74.0892 55.0181 73.9606 54.8742C73.8417 54.7183 73.6635 54.6403 73.4258 54.6403H72.8166C72.7276 54.6643 72.6484 54.7243 72.579 54.8202C72.5195 54.9042 72.49 55.0061 72.49 55.1261V59.4258C72.49 59.6417 72.5048 59.8036 72.5343 59.9115C72.5739 60.0075 72.6135 60.0854 72.6532 60.1454C72.6928 60.1934 72.7276 60.2413 72.7572 60.2893C72.7968 60.3373 72.8166 60.4153 72.8166 60.5232H72.0294C71.97 60.5232 71.9153 60.4932 71.866 60.4332C71.8163 60.3733 71.7918 60.3073 71.7918 60.2353C71.7918 60.3073 71.7669 60.3733 71.7173 60.4332C71.6777 60.4932 71.6233 60.5232 71.5541 60.5232H70.7817C70.7817 60.4153 70.7965 60.3373 70.8261 60.2893C70.8657 60.2413 70.9053 60.1934 70.9449 60.1454C70.9845 60.0854 71.0194 60.0075 71.0489 59.9115C71.0885 59.8156 71.1084 59.6656 71.1084 59.4617V55.0721C71.0788 54.7003 70.9401 54.4304 70.6924 54.2625C70.8015 54.1786 70.9401 54.1366 71.1084 54.1366V48.9913C71.1084 48.7874 71.0885 48.6375 71.0489 48.5415C71.0194 48.4456 70.9845 48.3736 70.9449 48.3256C70.9053 48.2657 70.8657 48.2117 70.8261 48.1638C70.7965 48.1158 70.7817 48.0378 70.7817 47.9299H71.5689C71.6283 47.9299 71.6827 47.9599 71.7324 48.0198C71.7817 48.0678 71.8066 48.1338 71.8066 48.2177C71.8066 48.0258 71.8858 47.9299 72.0442 47.9299H73.4406C73.7575 47.9299 74.0546 48.0018 74.3318 48.1458C74.6091 48.2897 74.8518 48.4876 75.0596 48.7394C75.2677 48.9793 75.4312 49.2672 75.55 49.603C75.6688 49.9388 75.733 50.2926 75.743 50.6644V51.8338C75.743 52.3375 75.644 52.7993 75.446 53.2191C75.2479 53.6388 74.9804 53.9747 74.6437 54.2265C74.9804 54.4664 75.2479 54.8022 75.446 55.234C75.644 55.6538 75.743 56.1155 75.743 56.6193V59.012C75.743 59.2639 75.743 59.5217 75.743 59.7856C75.7528 60.0374 75.7776 60.2713 75.8172 60.4872C75.8568 60.6911 75.9163 60.865 75.9955 61.0089C76.0747 61.1529 76.1838 61.2428 76.3224 61.2788ZM74.9706 51.528C74.9606 51.552 74.9558 51.5819 74.9558 51.6179V52.0317C74.9458 52.0797 74.9408 52.1276 74.9408 52.1756C74.9408 52.2116 74.9408 52.2476 74.9408 52.2836C74.9408 52.3075 74.936 52.3255 74.926 52.3375C74.926 52.3495 74.926 52.3675 74.926 52.3915V52.4994C74.9162 52.5234 74.9112 52.5534 74.9112 52.5894C74.9112 52.6134 74.9062 52.6374 74.8964 52.6614C74.8964 52.6853 74.8914 52.7033 74.8814 52.7153V52.7513L74.8666 52.7873C74.8666 52.7873 74.8766 52.7813 74.8964 52.7693V52.7513L74.9112 52.7333C74.921 52.7213 74.926 52.7153 74.926 52.7153C74.926 52.7033 74.931 52.6913 74.9408 52.6794C74.9508 52.6554 74.9606 52.6314 74.9706 52.6074C74.9804 52.5714 74.9904 52.5414 75.0002 52.5174C75.0102 52.4934 75.0153 52.4815 75.0153 52.4815C75.0153 52.4695 75.02 52.4515 75.03 52.4275C75.0398 52.4035 75.0448 52.3855 75.0448 52.3735C75.0448 52.3495 75.0499 52.3255 75.0596 52.3015C75.0697 52.2776 75.0747 52.2596 75.0747 52.2476C75.0747 52.2356 75.0794 52.2176 75.0895 52.1936C75.0895 52.1696 75.0895 52.1516 75.0895 52.1397C75.0992 52.1156 75.1043 52.0917 75.1043 52.0677C75.1143 52.0197 75.119 51.9717 75.119 51.9238C75.1291 51.8758 75.1388 51.8278 75.1489 51.7798C75.1587 51.7439 75.1637 51.6899 75.1637 51.6179C75.1637 51.5939 75.1637 51.5699 75.1637 51.546C75.1737 51.522 75.1785 51.498 75.1785 51.474V50.8443C75.1785 50.7723 75.1737 50.7184 75.1637 50.6824V50.6105C75.1637 50.5865 75.1587 50.5745 75.1489 50.5745C75.1489 50.5625 75.1489 50.5445 75.1489 50.5205C75.1489 50.4605 75.1388 50.3706 75.119 50.2506C75.1093 50.2267 75.1043 50.2027 75.1043 50.1787C75.1043 50.1547 75.0992 50.1307 75.0895 50.1067C75.0895 50.0947 75.0844 50.0887 75.0747 50.0887C75.0747 50.0767 75.0747 50.0647 75.0747 50.0527C75.0747 50.0407 75.0697 50.0348 75.0596 50.0348C75.0596 50.0228 75.0596 50.0108 75.0596 49.9988C75.0499 49.9748 75.0448 49.9568 75.0448 49.9448C75.0448 49.9328 75.0398 49.9148 75.03 49.8908C75.02 49.8668 75.0153 49.8488 75.0153 49.8369C75.0153 49.8249 75.0102 49.8069 75.0002 49.7829C74.9904 49.7709 74.9854 49.7589 74.9854 49.7469C74.9854 49.7349 74.9804 49.7229 74.9706 49.7109C74.9508 49.6629 74.9408 49.639 74.9408 49.639C74.931 49.627 74.926 49.621 74.926 49.621C74.926 49.609 74.921 49.597 74.9112 49.585C74.9012 49.573 74.8964 49.561 74.8964 49.549C74.8864 49.537 74.8814 49.525 74.8814 49.513H74.8666C74.8666 49.513 74.8716 49.525 74.8814 49.549V49.585C74.8914 49.597 74.8964 49.621 74.8964 49.6569C74.8964 49.6689 74.8964 49.6809 74.8964 49.6929C74.9062 49.6929 74.9112 49.7049 74.9112 49.7289C74.9112 49.7649 74.9162 49.7949 74.926 49.8189V49.9088C74.926 49.9328 74.926 49.9508 74.926 49.9628C74.936 49.9748 74.9408 49.9928 74.9408 50.0168C74.9408 50.1247 74.9458 50.2087 74.9558 50.2686V50.5565C74.9656 50.6165 74.9706 50.7124 74.9706 50.8443V51.528ZM71.9106 53.381C71.9106 53.321 71.9056 53.2551 71.8955 53.1831C71.8955 53.1111 71.8955 53.0392 71.8955 52.9672V52.5714C71.8858 52.3075 71.8808 52.0557 71.8808 51.8158C71.8808 51.5759 71.8757 51.3481 71.866 51.1322C71.8559 51.0362 71.8512 50.9403 71.8512 50.8443C71.8512 50.7484 71.8462 50.6584 71.8361 50.5745C71.8361 50.4785 71.8314 50.3946 71.8213 50.3226C71.8213 50.2506 71.8213 50.1847 71.8213 50.1247C71.8213 50.0647 71.8163 50.0108 71.8066 49.9628C71.8066 49.9148 71.8066 49.8728 71.8066 49.8369V49.7469C71.7965 49.7469 71.7918 49.7529 71.7918 49.7649V49.8369C71.7918 49.8728 71.7867 49.9148 71.7767 49.9628C71.7767 50.0108 71.7767 50.0647 71.7767 50.1247C71.7767 50.1847 71.772 50.2506 71.7619 50.3226C71.7619 50.3946 71.7619 50.4785 71.7619 50.5745C71.7522 50.6584 71.7471 50.7484 71.7471 50.8443C71.7471 50.9403 71.7421 51.0362 71.7324 51.1322C71.7223 51.3481 71.7173 51.5759 71.7173 51.8158C71.7173 52.0557 71.7125 52.3075 71.7025 52.5714V52.9672C71.7025 53.0392 71.6975 53.1111 71.6877 53.1831C71.6877 53.2551 71.6877 53.321 71.6877 53.381V55.0541C71.6877 55.15 71.6927 55.222 71.7025 55.27V55.8637C71.7025 55.9956 71.7025 56.1275 71.7025 56.2595C71.7125 56.3794 71.7173 56.4993 71.7173 56.6193C71.7173 56.7512 71.7173 56.8711 71.7173 56.9791C71.7273 57.087 71.7324 57.1949 71.7324 57.3029C71.7421 57.4108 71.7471 57.5128 71.7471 57.6087C71.7471 57.6927 71.7522 57.7826 71.7619 57.8786C71.7619 57.9626 71.7619 58.0405 71.7619 58.1125C71.772 58.1844 71.7767 58.2504 71.7767 58.3104C71.7767 58.3703 71.7767 58.4303 71.7767 58.4903C71.7867 58.5382 71.7918 58.5742 71.7918 58.5982V58.6882C71.7918 58.7002 71.7965 58.7062 71.8066 58.7062V58.5982C71.8066 58.5742 71.8066 58.5382 71.8066 58.4903C71.8163 58.4303 71.8213 58.3703 71.8213 58.3104C71.8213 58.2504 71.8213 58.1844 71.8213 58.1125C71.8314 58.0405 71.8361 57.9626 71.8361 57.8786C71.8462 57.7826 71.8512 57.6927 71.8512 57.6087C71.8512 57.5128 71.8559 57.4108 71.866 57.3029C71.866 57.1949 71.866 57.087 71.866 56.9791C71.8757 56.8711 71.8808 56.7512 71.8808 56.6193C71.8808 56.4993 71.8808 56.3794 71.8808 56.2595C71.8908 56.1275 71.8955 55.9956 71.8955 55.8637V55.4679C71.8955 55.3719 71.9006 55.306 71.9106 55.27V53.381ZM74.3614 50.7364C74.3614 50.5805 74.3567 50.3886 74.3466 50.1607C74.3369 49.9328 74.302 49.7169 74.2426 49.513C74.1832 49.3091 74.0892 49.1352 73.9606 48.9913C73.8417 48.8354 73.6635 48.7574 73.4258 48.7574H72.8908C72.782 48.7694 72.688 48.8234 72.6088 48.9193C72.5296 49.0153 72.49 49.1292 72.49 49.2612V53.309C72.49 53.4409 72.5296 53.5549 72.6088 53.6508C72.688 53.7468 72.782 53.7948 72.8908 53.7948H73.4258C73.6635 53.7948 73.8417 53.7228 73.9606 53.5789C74.0892 53.4349 74.1832 53.2611 74.2426 53.0572C74.302 52.8413 74.3369 52.6254 74.3466 52.4095C74.3567 52.1816 74.3614 51.9897 74.3614 51.8338V50.7364ZM75.3567 60.5952C75.3567 60.5952 75.3519 60.5892 75.3419 60.5772L75.3271 60.5592C75.3171 60.5352 75.3073 60.5112 75.2973 60.4872C75.2973 60.4632 75.2875 60.4392 75.2677 60.4153C75.2577 60.3793 75.2479 60.3433 75.2379 60.3073C75.2281 60.2593 75.2181 60.2054 75.2083 60.1454C75.1885 60.0255 75.1785 59.9115 75.1785 59.8036C75.1687 59.7436 75.1637 59.6836 75.1637 59.6237C75.1637 59.5517 75.1637 59.4738 75.1637 59.3898V58.4363C75.1637 58.3524 75.1637 58.2684 75.1637 58.1844C75.1637 58.1005 75.1687 58.0105 75.1785 57.9146C75.1785 57.8306 75.1785 57.7467 75.1785 57.6627C75.1785 57.5788 75.1737 57.4948 75.1637 57.4108V57.159C75.1637 57.0391 75.1587 56.9551 75.1489 56.9071C75.1489 56.8232 75.1439 56.7452 75.1341 56.6732C75.1341 56.5893 75.1291 56.5113 75.119 56.4394C75.0992 56.2714 75.0794 56.1275 75.0596 56.0076C75.0499 55.9476 75.0398 55.8936 75.03 55.8457C75.02 55.7857 75.0052 55.7257 74.9854 55.6658C74.9656 55.6058 74.9508 55.5578 74.9408 55.5219C74.931 55.4859 74.9162 55.4499 74.8964 55.4139C74.8766 55.3779 74.8616 55.3479 74.8518 55.324C74.8418 55.3 74.832 55.276 74.822 55.252C74.8122 55.252 74.8022 55.246 74.7924 55.234C74.7824 55.234 74.7776 55.228 74.7776 55.216L74.7924 55.234C74.7924 55.246 74.7974 55.258 74.8072 55.27C74.8072 55.282 74.8072 55.294 74.8072 55.306C74.8172 55.306 74.822 55.318 74.822 55.3419C74.832 55.3539 74.837 55.3659 74.837 55.3779C74.837 55.3899 74.8418 55.4079 74.8518 55.4319C74.8616 55.4799 74.8766 55.5638 74.8964 55.6838C74.9062 55.7437 74.9112 55.8037 74.9112 55.8637C74.921 55.9236 74.931 55.9836 74.9408 56.0436C74.9408 56.1035 74.9408 56.1695 74.9408 56.2415C74.9508 56.3014 74.9558 56.3734 74.9558 56.4573V58.6882C74.9558 58.7361 74.9558 58.7781 74.9558 58.8141C74.9656 58.8501 74.9706 58.8921 74.9706 58.94C74.9706 59.024 74.9706 59.1079 74.9706 59.1919C74.9804 59.2639 74.9904 59.3358 75.0002 59.4078C75.0102 59.4798 75.0153 59.5517 75.0153 59.6237C75.025 59.6956 75.0351 59.7616 75.0448 59.8216C75.0646 59.8935 75.0794 59.9595 75.0895 60.0195C75.0992 60.0674 75.1143 60.1214 75.1341 60.1814C75.1539 60.2413 75.1687 60.2893 75.1785 60.3253C75.1885 60.3613 75.2033 60.3973 75.2231 60.4332L75.2529 60.4692C75.2627 60.4812 75.2677 60.4932 75.2677 60.5052C75.2677 60.5052 75.2727 60.5112 75.2825 60.5232L75.3419 60.5952H75.3567Z" fill="#F4EDE8"/>
<path d="M79.7046 53.5455C80.1441 53.5455 80.5004 53.977 80.5004 54.5092C80.5004 55.0415 80.1441 55.473 79.7046 55.473C79.2651 55.473 78.9088 55.0415 78.9088 54.5092C78.9088 53.977 79.2651 53.5455 79.7046 53.5455Z" fill="#999591"/>
<path d="M29.0399 53.5455C29.4794 53.5455 29.8357 53.977 29.8357 54.5092C29.8357 55.0415 29.4794 55.473 29.0399 55.473C28.6004 55.473 28.2441 55.0415 28.2441 54.5092C28.2441 53.977 28.6004 53.5455 29.0399 53.5455Z" fill="#999591"/>
</g>
<line y1="9.125" x2="110" y2="9.125" stroke="white" stroke-opacity="0.1"/>
<line y1="19.2083" x2="110" y2="19.2083" stroke="white" stroke-opacity="0.1"/>
<line y1="29.2917" x2="110" y2="29.2917" stroke="white" stroke-opacity="0.1"/>
<line y1="39.375" x2="110" y2="39.375" stroke="white" stroke-opacity="0.1"/>
<line y1="49.4583" x2="110" y2="49.4583" stroke="white" stroke-opacity="0.1"/>
<line y1="59.5417" x2="110" y2="59.5417" stroke="white" stroke-opacity="0.1"/>
<line y1="69.625" x2="110" y2="69.625" stroke="white" stroke-opacity="0.1"/>
<line y1="79.7083" x2="110" y2="79.7083" stroke="white" stroke-opacity="0.1"/>
<line y1="89.7917" x2="110" y2="89.7917" stroke="white" stroke-opacity="0.1"/>
<line y1="99.875" x2="110" y2="99.875" stroke="white" stroke-opacity="0.1"/>
<line x1="9.125" y1="110" x2="9.12499" y2="2.00344e-08" stroke="white" stroke-opacity="0.1"/>
<line x1="19.2083" y1="110" x2="19.2083" y2="2.00344e-08" stroke="white" stroke-opacity="0.1"/>
<line x1="29.2917" y1="110" x2="29.2917" y2="2.00344e-08" stroke="white" stroke-opacity="0.1"/>
<line x1="39.375" y1="110" x2="39.375" y2="2.00344e-08" stroke="white" stroke-opacity="0.1"/>
<line x1="49.4583" y1="110" x2="49.4583" y2="2.00344e-08" stroke="white" stroke-opacity="0.1"/>
<line x1="59.5417" y1="110" x2="59.5417" y2="2.00344e-08" stroke="white" stroke-opacity="0.1"/>
<line x1="69.625" y1="110" x2="69.625" y2="2.00344e-08" stroke="white" stroke-opacity="0.1"/>
<line x1="79.7083" y1="110" x2="79.7083" y2="2.00344e-08" stroke="white" stroke-opacity="0.1"/>
<line x1="89.7917" y1="110" x2="89.7917" y2="2.00344e-08" stroke="white" stroke-opacity="0.1"/>
<line x1="99.875" y1="110" x2="99.875" y2="2.00344e-08" stroke="white" stroke-opacity="0.1"/>
<circle cx="55" cy="55.4583" r="32.5" stroke="black" stroke-opacity="0.1"/>
<defs>
<clipPath id="clip0">
<rect width="61" height="43" fill="white" transform="translate(24 33)"/>
</clipPath>
</defs>
</svg>
